<?xml version="1.0" encoding="utf-8"?>
<!-- Generator: Adobe Illustrator 25.2.3, SVG Export Plug-In . SVG Version: 6.00 Build 0)  -->
<svg version="1.1" id="Layer_1" xmlns="http://www.w3.org/2000/svg" xmlns:xlink="http://www.w3.org/1999/xlink" x="0px" y="0px"
	 viewBox="0 0 733 345.8" style="enable-background:new 0 0 733 345.8;" xml:space="preserve">
<style type="text/css">
	.st0{fill:#EBEBEB;}
	.st1{fill:none;}
	.st2{fill:#384850;}
	.st3{fill:#237CA5;}
	.st4{fill:#F99E26;}
	.st5{fill:#FEDA46;}
	.st6{fill:#EF465E;}
	.st7{fill:#B41E46;}
	.st8{fill:url(#SVGID_1_);}
	.st9{fill:url(#SVGID_2_);}
	.st10{fill:url(#SVGID_3_);}
	.st11{fill:url(#SVGID_4_);}
	.st12{fill:url(#SVGID_5_);}
	.st13{fill:url(#SVGID_6_);}
</style>
<g id="Layer_2_1_">
	<g id="Layer_1-2">
		<g id="freepik--background-complete--inject-11">
			<path class="st0" d="M716.4,301.5l-14.5,0.3l-7.3,0.1c-2.5,0.1-4.9,0-7.4,0.1h-0.5v-0.5l-0.1-13.3v-0.6h0.5l14.6,0.1
				c4.9,0,9.7,0.1,14.6,0.2h0.3v0.3c0,2.3-0.1,4.5-0.1,6.7L716.4,301.5z M716.4,301.5l-0.2-6.7c-0.1-2.2-0.1-4.4-0.2-6.6l0.3,0.3
				c-4.9,0.1-9.7,0.2-14.6,0.2l-14.6,0.1l0.6-0.6v13.3l-0.5-0.5c2.4,0,4.8,0,7.2,0.1l7.2,0.2L716.4,301.5z"/>
			<path class="st0" d="M700.1,318.2l-14.5,0.3l-7.3,0.1c-2.5,0-4.9,0-7.4,0.1h-0.5v-14.4h0.5l14.6,0.1c4.9,0,9.7,0.1,14.6,0.2h0.3
				v0.3c0,2.3-0.1,4.5-0.2,6.7L700.1,318.2z M700.1,318.2l-0.2-6.7c-0.1-2.2-0.1-4.4-0.2-6.6l0.3,0.3c-4.9,0.1-9.7,0.2-14.6,0.2
				l-14.6,0.1l0.6-0.6v13.3l-0.5-0.5c2.4,0,4.8,0,7.2,0.1l7.2,0.1L700.1,318.2z"/>
			<path class="st0" d="M732.7,318.2l-14.5,0.3l-7.3,0.1c-2.5,0-4.9,0-7.4,0.1H703v-0.5l-0.1-13.3v-0.6h0.5l14.6,0.1
				c4.9,0,9.7,0.1,14.6,0.2h0.3v0.3c0,2.3-0.1,4.5-0.1,6.7L732.7,318.2z M732.7,318.2l-0.2-6.7c0-2.2-0.1-4.4-0.2-6.6l0.3,0.3
				c-4.9,0.1-9.7,0.2-14.6,0.2l-14.6,0.1l0.6-0.6v13.3l-0.5-0.5c2.4,0,4.8,0,7.2,0.1l7.3,0.1L732.7,318.2z"/>
			<path class="st0" d="M300.2,143.1l-14.5,0.3l-7.3,0.1h-7.9v-0.5l-0.1-13.3v-0.6h0.5l14.6,0.1c4.9,0,9.7,0.1,14.6,0.2h0.3v0.3
				c0,2.3-0.1,4.5-0.2,6.7L300.2,143.1z M300.2,143.1l-0.2-6.7c0-2.2-0.1-4.4-0.1-6.6l0.3,0.3c-4.9,0-9.7,0.2-14.6,0.2l-14.6,0.1
				l0.5-0.6v13.3l-0.5-0.5c2.4,0,4.8,0,7.2,0.1l7.3,0.1L300.2,143.1z"/>
			<path class="st0" d="M283.9,159.9l-14.5,0.3l-7.4,0.1c-2.4,0-4.9,0-7.4,0.1h-0.5v-0.5l-0.1-13.3V146h0.6l14.6,0.1
				c4.9,0,9.7,0.1,14.6,0.2h0.3v0.3c0,2.3-0.1,4.5-0.1,6.7L283.9,159.9z M283.9,159.9l-0.2-6.7c0-2.2-0.1-4.4-0.1-6.6l0.3,0.3
				c-4.9,0.1-9.7,0.2-14.6,0.2l-14.6,0.1l0.6-0.6v13.3l-0.5-0.5c2.4,0,4.8,0,7.2,0.1l7.2,0.1L283.9,159.9z"/>
			<path class="st0" d="M316.5,159.9l-14.5,0.3l-7.3,0.1c-2.5,0-4.9,0-7.4,0.1h-0.5v-0.5l-0.1-13.3V146h0.5l14.6,0.1
				c4.9,0,9.7,0.1,14.6,0.2h0.3v0.3c0,2.3-0.1,4.5-0.1,6.7L316.5,159.9z M316.5,159.9l-0.2-6.7c0-2.2-0.1-4.4-0.1-6.6l0.3,0.3
				c-4.9,0.1-9.7,0.2-14.6,0.2l-14.6,0.1l0.5-0.6l0,13.3l-0.5-0.5c2.4,0,4.8,0,7.2,0.1l7.3,0.1L316.5,159.9z"/>
			<path class="st0" d="M62.2,231.2l-14.5,0.3l-7.3,0.1c-2.5,0-4.9,0-7.4,0.1h-0.4v-14.4h0.5l14.6,0.1c4.9,0,9.7,0.1,14.6,0.2h0.3
				v0.3c0,2.3-0.1,4.5-0.1,6.7L62.2,231.2z M62.2,231.2l-0.2-6.7c0-2.2-0.1-4.4-0.1-6.6l0.3,0.3c-4.9,0.1-9.7,0.2-14.6,0.2
				l-14.6,0.1l0.5-0.6l-0.1,13.3l-0.5-0.5c2.4,0,4.8,0,7.2,0.1l7.2,0.1L62.2,231.2z"/>
			<path class="st0" d="M546.1,143.1l-14.5,0.3l-7.3,0.1c-2.5,0.1-4.9,0-7.4,0.1h-0.5v-0.5l-0.1-13.3v-0.6h0.5l14.6,0.1
				c4.9,0,9.7,0.1,14.6,0.2h0.3v0.3c0,2.3-0.1,4.5-0.1,6.7L546.1,143.1z M546.1,143.1l-0.1-6.7c-0.1-2.2-0.1-4.4-0.1-6.6l0.3,0.3
				c-4.9,0.1-9.7,0.2-14.6,0.2l-14.6,0.1l0.5-0.6l-0.1,13.3l-0.5-0.5c2.4,0,4.8,0,7.2,0.1l7.3,0.1L546.1,143.1z"/>
			<path class="st0" d="M714.7,13.9l-14.5,0.3l-7.3,0.1c-2.5,0-4.9,0-7.4,0.1H685V0h0.5l14.6,0.1c4.9,0,9.7,0.1,14.6,0.2h0.3v0.3
				c0,2.3-0.1,4.5-0.1,6.7L714.7,13.9z M714.7,13.9l-0.2-6.7c0-2.2-0.1-4.4-0.1-6.6l0.3,0.3c-4.9,0-9.7,0.2-14.6,0.2l-14.6,0.1
				l0.5-0.6L686,13.9l-0.5-0.5c2.4,0,4.8,0,7.2,0.1l7.2,0.1L714.7,13.9z"/>
			<path class="st0" d="M731,30.7L716.5,31l-7.3,0.1c-2.5,0.1-4.9,0-7.4,0.1h-0.5v-0.5l-0.1-13.3v-0.6h0.5l14.6,0.1
				c4.9,0,9.7,0.1,14.6,0.2h0.3v0.3c0,2.3-0.1,4.5-0.2,6.7L731,30.7z M731,30.7l-0.2-6.7c0-2.2-0.1-4.4-0.1-6.6l0.3,0.3
				c-4.9,0.1-9.7,0.2-14.6,0.2L701.8,18l0.5-0.6v13.3l-0.5-0.5c2.4,0,4.8,0,7.2,0.1l7.3,0.1L731,30.7z"/>
			<path class="st0" d="M29.7,13.9l-14.5,0.3l-7.3,0.1c-2.4,0-4.9,0-7.4,0.1H0V0h0.6l14.6,0.1c4.8,0,9.7,0.1,14.6,0.2H30v0.3
				c0,2.3-0.1,4.5-0.1,6.7L29.7,13.9z M29.7,13.9l-0.2-6.7c0-2.2-0.1-4.4-0.1-6.6l0.3,0.3C24.8,1,20,1.1,15.1,1.1L0.5,1.2L1,0.6
				l0,13.3l-0.5-0.5h7.2l7.3,0.1L29.7,13.9z"/>
			<rect x="150" y="3" class="st1" width="130.7" height="95"/>
			<path class="st0" d="M281.2,98.6H149.4V2.4h131.7V98.6z M150.6,97.4h129.5V3.6H150.6V97.4z"/>
			<path class="st2" d="M162.6,10.2c0,1.7-1.3,3-3,3s-3-1.3-3-3c-0.1-1.7,1.3-3.2,3-3.3l0,0C161.3,7,162.6,8.5,162.6,10.2z"/>
			<path class="st0" d="M174.9,10.2c0,1.7-1.3,3-3,3s-3-1.3-3-3c-0.1-1.7,1.3-3.2,3-3.3l0,0C173.6,7,174.9,8.5,174.9,10.2z"/>
			<path class="st3" d="M187.1,10.2c0,1.7-1.3,3-3,3s-3-1.3-3-3c-0.1-1.7,1.3-3.2,3-3.3l0,0C185.9,7,187.2,8.5,187.1,10.2z"/>
			<rect x="150" y="16.7" class="st0" width="130.7" height="1.2"/>
			<path class="st0" d="M173.7,128.3c0-1.5,0.2-5.4,0.2-7.1c0-7.2-2.4-10.5-8.6-10.7c-2.9-0.2-4.7-2.1-4.7-4.8s1.7-4.6,4.7-4.8
				c6.2-0.3,8.6-3.5,8.6-10.8c0-1.7-0.2-5.6-0.2-7.1c0-9.6,3.8-15.7,18-19.1c2.1-0.6,4.3,0.5,4.9,2.6c0.1,0.5,0.2,1,0.2,1.5
				c0.1,1.7-1,3.3-2.6,4c-8.9,3-10.2,6-10.2,12.8c0,2,0.2,5.2,0.2,7.3c0,7.7-3.5,11.5-9.5,13.6c6.1,2.2,9.5,5.8,9.5,13.6
				c0,2.1-0.2,5.3-0.2,7.3c0,6.7,1.3,9.8,10.2,12.8c1.6,0.7,2.6,2.3,2.6,4c0.2,2.2-1.4,4.1-3.6,4.2c-0.5,0-1,0-1.4-0.2
				C177.5,144.1,173.7,138,173.7,128.3z"/>
			<path class="st0" d="M227.5,83c0,1.5-0.2,5.4-0.2,7.1c0,7.3,2.5,10.5,8.7,10.8c2.6,0.1,4.7,2.3,4.5,5c-0.1,2.5-2.1,4.4-4.5,4.5
				c-6.3,0.2-8.7,3.5-8.7,10.7c0,1.7,0.2,5.6,0.2,7.1c0,9.7-3.8,15.9-18,19.2c-2.1,0.6-4.3-0.6-4.9-2.6c-0.1-0.5-0.2-1-0.2-1.4
				c-0.1-1.8,1-3.4,2.7-4.1c8.8-3,10.1-6,10.1-12.8c0-2-0.2-5.3-0.2-7.3c0-7.7,3.5-11.5,9.6-13.6c-6.1-2.2-9.6-5.8-9.6-13.6
				c0-2.1,0.2-5.3,0.2-7.3c0-6.7-1.3-9.8-10.1-12.8c-1.7-0.6-2.7-2.3-2.7-4c-0.1-2.2,1.5-4,3.7-4.2c0.5,0,0.9,0,1.4,0.2
				C223.7,67.3,227.5,73.4,227.5,83z"/>
			<path class="st0" d="M630.7,190.4c1.5,1.6,1.5,4.1,0,5.7c-0.7,0.8-1.6,1.2-2.7,1.2c-1,0-2-0.4-2.7-1.2l-16.7-18.2
				c-0.2-0.1-0.3-0.2-0.3-0.4l-0.2-0.1c-0.1-0.2-0.1-0.3-0.2-0.5c-0.1,0-0.2-0.1-0.2-0.3c-0.1-0.1-0.1-0.3-0.1-0.4
				c-0.1-0.1-0.1-0.2-0.1-0.3v-0.4c0-0.1-0.1-0.2-0.1-0.4c0-0.1,0-0.2,0.1-0.3v-0.4c0-0.1,0.1-0.2,0.1-0.3c0-0.2,0-0.4,0.1-0.5
				c0.1-0.2,0.1,0,0.1-0.1c0.1-0.2,0.2-0.4,0.3-0.6c0,0,0-0.1,0.1-0.1c0.1-0.2,0.2-0.3,0.4-0.4l16.7-18.3c1.4-1.5,3.7-1.5,5.2-0.1
				c0,0,0.1,0.1,0.1,0.1c1.5,1.6,1.5,4.1,0,5.8l0,0l-14.1,15.3L630.7,190.4z"/>
			<path class="st0" d="M645.8,192.4l14.5-37.3c0.6-1.7,2.5-2.5,4.1-1.9c0.1,0,0.1,0.1,0.2,0.1c1.7,0.8,2.4,2.8,1.7,4.5l0,0
				l-14.5,37.4c-0.5,1.2-1.7,2.1-3,2.1c-0.4,0-0.8-0.1-1.2-0.3c-1.7-0.8-2.5-2.7-1.8-4.5C645.8,192.5,645.8,192.5,645.8,192.4z"/>
			<path class="st0" d="M695.1,177.4L695.1,177.4c-0.1,0.2-0.3,0.4-0.4,0.5L678,196.1c-1.4,1.5-3.7,1.5-5.2,0.1c0,0-0.1-0.1-0.1-0.1
				c-1.5-1.6-1.5-4.1,0-5.8l0,0l14.1-15.3l-14.1-15.3c-1.5-1.6-1.5-4.1,0-5.8l0,0c1.4-1.5,3.7-1.5,5.2-0.1c0,0,0.1,0.1,0.1,0.1
				l16.7,18.2c0.2,0.1,0.3,0.3,0.4,0.4v0.1c0.1,0.2,0.2,0.4,0.3,0.6c0,0.1,0.1,0.1,0.1,0.1c0,0.2,0.1,0.4,0.2,0.6v1.9
				c-0.1,0.2-0.1,0.4-0.2,0.6s-0.1,0.1-0.1,0.2S695.2,177.1,695.1,177.4z"/>
			<path class="st0" d="M599.7,98.3c0,8.1-5.8,14.7-13.2,15.3H506c-9.2-0.3-16.5-8.7-16.1-18.7c0.3-8.8,6.4-16.1,14.5-17.3
				c0.5-16.8,13.5-29.9,29.1-29.4c11.5,0.4,21.5,8.3,25.5,19.9c8.3-4.5,18.3-0.9,22.5,8c1,2.2,1.6,4.6,1.8,7
				c0.8-0.1,1.5-0.2,2.3-0.2C593.3,82.9,599.7,89.8,599.7,98.3z"/>
			<path class="st0" d="M678.4,307.2l9.1-15.9l-4.5-3c-1.3-1-2.1-2.5-1.9-4.2c0.1-0.9,0.1-1.8,0.1-2.7c-0.1-1.7,0.8-3.2,2.2-4.1
				l4.7-2.7l-8.2-16.5l-4.7,2.7c-1.3,0.8-3,0.7-4.2-0.3c-0.8-0.6-1.5-1.1-2.3-1.6c-1.4-0.9-2.2-2.4-2.1-4l0.2-5.7l-17.3-0.6
				l-0.2,5.8c0,1.6-0.9,3.1-2.3,3.8c-0.4,0.2-0.8,0.4-1.2,0.6s-0.8,0.5-1.2,0.7c-1.3,0.9-3,0.9-4.3,0l-4.5-3l-9.1,15.9l4.5,3
				c1.3,1,2,2.6,1.9,4.2c-0.1,0.9-0.1,1.8-0.1,2.7c0.1,1.7-0.7,3.2-2.2,4.1l-4.7,2.7l8.2,16.5l4.7-2.7c1.4-0.8,3.1-0.7,4.3,0.3
				c0.7,0.5,1.4,1,2.2,1.4c1.4,0.8,2.3,2.4,2.2,4l-0.2,5.8l17.3,0.6l0.2-5.7c0-1.6,1-3.1,2.4-3.9c0.4-0.2,0.8-0.4,1.2-0.6
				c0.4-0.2,0.7-0.4,1.1-0.7c1.3-0.9,3-0.9,4.3,0L678.4,307.2z M665.3,294.3c-6.4,4.9-15.3,3.4-19.8-3.5s-3.1-16.5,3.2-21.4
				s15.3-3.4,19.8,3.5c0.7,1.1,1.3,2.3,1.8,3.5C672.6,282.9,670.6,290.1,665.3,294.3L665.3,294.3z"/>
			<path class="st0" d="M582.6,345l10.5-6.5l-1.9-3.5c-0.5-1-0.5-2.3,0.1-3.3c0.3-0.5,0.6-1.1,0.9-1.7c0.4-1,1.5-1.7,2.6-1.7h3.7
				v-13.1h-3.7c-1.1,0-2.1-0.7-2.6-1.7c-0.3-0.6-0.6-1.1-0.9-1.7c-0.6-1-0.6-2.2-0.1-3.3l1.8-3.5l-10.5-6.6l-1.9,3.5
				c-0.5,1-1.6,1.6-2.7,1.5h-1.8c-1.1,0.1-2.1-0.5-2.7-1.5l-1.9-3.6l-10.5,6.6l1.9,3.5c0.5,1,0.5,2.3-0.1,3.3
				c-0.3,0.5-0.6,1.1-0.9,1.7c-0.5,1-1.5,1.7-2.6,1.7h-3.7v13h3.7c1.1,0,2.1,0.7,2.6,1.7c0.3,0.6,0.6,1.1,0.9,1.7
				c0.6,1,0.6,2.2,0.1,3.3l-1.9,3.5l10.5,6.5l1.9-3.5c0.5-1,1.6-1.6,2.7-1.5h1.8c1.1-0.1,2.2,0.5,2.7,1.5L582.6,345z M577.2,332.5
				c-5.5,0-9.9-4.8-9.9-10.7s4.4-10.7,9.9-10.7s9.9,4.8,9.9,10.7S582.7,332.4,577.2,332.5L577.2,332.5z"/>
			<path class="st0" d="M48.4,62c1,0.6,1.5,1.7,1.4,2.9v1.9c0.1,1.1-0.5,2.2-1.4,2.9l-3.2,2l6.1,11.3l3.2-2c0.9-0.6,2.1-0.5,3,0.1
				c0.5,0.4,1,0.7,1.6,1c1,0.6,1.6,1.6,1.6,2.8v4h12.2v-4c0-1.1,0.6-2.2,1.6-2.8c0.5-0.3,1.1-0.6,1.6-1c0.9-0.6,2.1-0.7,3-0.1l3.2,2
				l6.1-11.3l-3.2-2c-1-0.6-1.5-1.7-1.4-2.9v-1.9C83.5,63.7,84,62.6,85,62l3.2-2l-6-11.3l-3.2,2c-0.9,0.6-2.1,0.5-3-0.1
				c-0.5-0.4-1-0.7-1.6-1c-1-0.6-1.6-1.6-1.6-2.8v-4H60.7v4c0,1.1-0.6,2.2-1.6,2.8c-0.5,0.3-1.1,0.6-1.6,1c-0.9,0.6-2.1,0.7-3,0.1
				l-3.2-2L45.2,60L48.4,62z M66.8,55.1c5.5,0,9.9,4.8,9.9,10.7s-4.4,10.7-9.9,10.7s-9.9-4.8-9.9-10.7l0,0
				C56.9,59.9,61.3,55.1,66.8,55.1L66.8,55.1z"/>
		</g>
		<path class="st4" d="M253.6,262.9v11.7H267v11.6h13.4v-23.3H253.6z"/>
		<path class="st4" d="M213.2,262.9h26.9v11.7h-26.9V262.9z"/>
		<path class="st4" d="M172.9,262.9h26.9v11.7h-26.9V262.9z"/>
		<path class="st5" d="M132.6,262.9h26.9v11.7h-26.9V262.9z"/>
		<path class="st5" d="M92.3,262.9h26.9v11.7H92.3V262.9z"/>
		<path class="st5" d="M52,264.9v21.4h13.4v-11.7h13.4v-11.7H52V264.9z"/>
		<path class="st4" d="M267,332.8h-13.4v11.6h26.9v-23.3H267V332.8z"/>
		<path class="st5" d="M65.4,321.2H52v23.3h26.8v-11.6H65.4V321.2z"/>
		<path class="st4" d="M213.2,332.8h26.9v11.6h-26.9V332.8z"/>
		<path class="st4" d="M172.9,332.8h26.9v11.6h-26.9V332.8z"/>
		<path class="st5" d="M132.6,332.8h26.9v11.6h-26.9V332.8z"/>
		<path class="st5" d="M92.3,332.8h26.9v11.6H92.3V332.8z"/>
		<path class="st5" d="M52,297.9h13.4v11.6H52V297.9z"/>
		<path class="st4" d="M267,297.9h13.4v11.6H267V297.9z"/>
		<path class="st5" d="M116,287.9l-9.5,8.2l-9.5-8.2l-9.5,8.2l9.5,8.2l-9.5,8.2l9.5,8.2l9.5-8.2l9.5,8.2l9.5-8.2l-9.5-8.2l9.5-8.2
			L116,287.9z"/>
		<path class="st4" d="M176,304.4l9.5,8.2l-9.5,8.2l-9.5-8.2v-16.5l9.5-8.2l9.5,8.2L176,304.4z"/>
		<path class="st5" d="M166.5,296.1v16.5l-9.5,8.2l-9.5-8.2l9.5-8.2l-9.5-8.2l9.5-8.2L166.5,296.1z"/>
		<path class="st4" d="M244.9,296.1l-9.5-8.2l-9.5,8.2l-9.5-8.2l-9.5,8.2l9.5,8.2l-9.5,8.2l9.5,8.2l9.5-8.2l9.5,8.2l9.5-8.2
			l-9.5-8.2L244.9,296.1z"/>
		<path class="st6" d="M76.3,251.3h-1.7c-12.5,0-22.7-8.8-22.7-19.7v-18.9c0-10.8,10.2-19.7,22.7-19.7h1.7
			c12.5,0,22.7,8.8,22.7,19.7v3.6H85.6v-3.6c0-4.4-4.1-8-9.2-8h-1.7c-5.1,0-9.2,3.6-9.2,8v18.9c0,4.4,4.1,8,9.2,8h1.7
			c5.1,0,9.2-3.6,9.2-8V228H99v3.6C99,242.4,88.8,251.3,76.3,251.3z"/>
		<path class="st6" d="M136.8,251.3h-1.7c-12.5,0-22.7-8.8-22.7-19.7v-18.9c0-10.8,10.2-19.7,22.7-19.7h1.7
			c12.5,0,22.7,8.8,22.7,19.7v18.9C159.5,242.4,149.3,251.3,136.8,251.3z M135.1,204.6c-5.1,0-9.2,3.6-9.2,8v18.9c0,4.4,4.2,8,9.2,8
			h1.7c5.1,0,9.2-3.6,9.2-8v-18.9c0-4.4-4.1-8-9.2-8L135.1,204.6z"/>
		<path class="st7" d="M197.3,251.3h-24.4V193h24.4c12.5,0,22.7,8.8,22.7,19.7v18.9C220,242.4,209.8,251.3,197.3,251.3z
			 M186.4,239.6h10.9c5.1,0,9.2-3.6,9.2-8v-18.9c0-4.4-4.1-8-9.2-8h-10.9V239.6z"/>
		<path class="st7" d="M280.4,204.6V193h-47v58.3h47v-11.6h-33.6V228h24.6v-11.7h-24.6v-11.7H280.4z"/>
		<path d="M312.8,341.2c-5.3-3.1-9.6-7.7-12.3-13.2c-2.8-5.8-4.3-12.7-4.3-20.8v-77.1c0-8.2,1.4-15.1,4.3-20.9
			c2.7-5.6,6.9-10.2,12.3-13.2c5.3-3.1,11.7-4.6,19.2-4.6c7.5,0,13.9,1.5,19.3,4.6c5.4,3,9.6,7.7,12.2,13.3
			c2.8,5.8,4.2,12.8,4.2,20.9v9.3h-23.1v-9.3c0.1-2.9-0.4-5.9-1.5-8.6c-0.8-2.2-2.3-4.2-4.3-5.5c-2.1-1.3-4.5-2-6.9-1.9
			c-2.4-0.1-4.7,0.6-6.8,1.9c-2,1.3-3.5,3.2-4.4,5.5c-1.1,2.8-1.6,5.7-1.6,8.7v77c-0.1,3,0.4,5.9,1.6,8.6c0.9,2.2,2.4,4.1,4.4,5.4
			c2,1.3,4.4,1.9,6.8,1.9c2.5,0.1,4.9-0.6,7-1.9c1.9-1.4,3.4-3.3,4.3-5.5c1-2.8,1.5-5.7,1.5-8.6v-9.3h23.1v9.3
			c-0.1,8.1-1.5,15.1-4.3,20.9c-2.6,5.6-6.8,10.2-12.2,13.3c-5.4,3-11.8,4.5-19.3,4.5C324.6,345.8,318.1,344.3,312.8,341.2z"/>
		<path d="M398.8,342.2c-4.6-2.3-8.4-5.9-10.9-10.4c-2.7-5-4-10.7-3.8-16.4v-51.2c-0.2-5.6,1.1-11.2,3.8-16.2
			c2.5-4.4,6.3-8,10.9-10.2c10.9-4.7,23.3-4.7,34.2,0c4.6,2.2,8.4,5.7,10.8,10.2c2.6,5,3.9,10.6,3.7,16.2v51.5
			c0.2,5.6-1.1,11.2-3.7,16.2c-2.4,4.5-6.2,8.1-10.8,10.3c-5.3,2.5-11.2,3.7-17.1,3.5C409.3,345.8,403.6,344.6,398.8,342.2z
			 M422.5,321.9c1.6-1.8,2.3-4.4,2.3-7.7v-48.5c0-3.2-0.8-5.7-2.3-7.4c-3.7-3.5-9.6-3.5-13.3,0c-1.6,1.8-2.4,4.2-2.4,7.4v48.5
			c0,3.3,0.8,5.9,2.4,7.7C412.9,325.5,418.8,325.5,422.5,321.9z"/>
		<path d="M489.9,313.5c-0.2,2.3,0.5,4.6,1.9,6.4c1.4,1.5,3.4,2.4,5.5,2.2h4.6v22h-9c-8.2,0-14.5-2.5-19.1-7.5
			c-4.5-5-6.8-12-6.8-21.1V193h22.9V313.5z"/>
		<path d="M539.1,313.5c-0.2,2.3,0.5,4.6,1.9,6.4c1.4,1.5,3.4,2.4,5.5,2.2h4.6v22h-9c-8.2,0-14.5-2.5-19.1-7.5
			c-4.5-5-6.8-12-6.8-21.1V193h22.9L539.1,313.5z"/>
		<path d="M569.3,338.1c-4.4-5.1-6.5-12.7-6.5-22.9c0-11.8,2.9-20.8,8.8-26.8s14.4-9.1,25.7-9h11l1.5,19h-11.7
			c-4.5,0-7.9,1.4-10.2,4.3s-3.4,7-3.4,12.6c0,3.7,0.9,6.4,2.6,8.3c1.7,1.8,4.3,2.8,7.7,2.8c4.2,0,7.5-1.2,9.7-3.5
			c2.2-2.4,3.3-5.8,3.3-10.4l2,9.5c0.1,4.6-0.8,9.1-2.6,13.3c-1.4,3.4-3.9,6.2-7.1,8.1c-3.5,1.9-7.5,2.8-11.5,2.7
			C580.1,345.8,573.7,343.2,569.3,338.1z M607.7,266c0-3.6-1-6.4-2.9-8.4s-4.7-3-8.2-3c-2.7-0.1-5.3,1-7.1,3c-1.7,2-2.5,4.8-2.6,8.4
			H565c0.1-10,2.9-17.8,8.5-23.4c5.6-5.5,13.4-8.3,23.5-8.3c6.9,0,12.7,1.2,17.6,3.7c4.7,2.4,8.6,6.1,11.1,10.8
			c2.6,4.7,3.8,10.5,3.8,17.1v78.2h-21.8V266z"/>
		<path d="M651.2,193h22.9v151.2h-22.9V193z M680.7,340.9c-3.7-3.2-6.4-7.8-8.1-13.6l1.5-16c-0.1,2.6,0.4,5.1,1.2,7.5
			c0.7,1.9,1.9,3.5,3.5,4.7c1.7,1.1,3.6,1.7,5.6,1.6c3,0.1,5.9-1.3,7.6-3.7c1.8-2.5,2.8-6,2.8-10.5v-42c0-4.4-0.9-7.8-2.8-10.1
			c-1.8-2.4-4.7-3.7-7.6-3.6c-2-0.1-3.9,0.5-5.6,1.5c-1.6,1.1-2.8,2.7-3.5,4.5c-0.9,2.3-1.3,4.8-1.2,7.3l-2.2-14.3
			c2.3-6.2,5.4-11.1,9.4-14.6c3.6-3.3,8.2-5.2,13.1-5.2c4.5-0.1,8.8,1.2,12.5,3.8c3.7,2.8,6.4,6.6,7.9,10.9
			c1.9,5.6,2.9,11.5,2.7,17.4v46.7c0.1,6-0.8,12-2.8,17.7c-1.5,4.5-4.4,8.3-8.2,11.1c-3.8,2.6-8.3,3.9-12.8,3.8
			C688.9,345.8,684.2,344.1,680.7,340.9z"/>
		
			<linearGradient id="SVGID_1_" gradientUnits="userSpaceOnUse" x1="296.24" y1="79.4" x2="717.46" y2="79.4" gradientTransform="matrix(1 0 0 -1 0 348)">
			<stop  offset="0" style="stop-color:#FEDA46"/>
			<stop  offset="6.000000e-02" style="stop-color:#FED22E"/>
			<stop  offset="0.13" style="stop-color:#FDCC1B"/>
			<stop  offset="0.2" style="stop-color:#FDC810"/>
			<stop  offset="0.28" style="stop-color:#FDC70C"/>
			<stop  offset="0.59" style="stop-color:#F4953D"/>
			<stop  offset="0.68" style="stop-color:#F3903F"/>
			<stop  offset="0.81" style="stop-color:#ED683C"/>
			<stop  offset="1" style="stop-color:#E93E3A"/>
		</linearGradient>
		<path class="st8" d="M312.8,341.2c-5.3-3.1-9.6-7.7-12.3-13.2c-2.8-5.8-4.3-12.7-4.3-20.8v-77.1c0-8.2,1.4-15.1,4.3-20.9
			c2.7-5.6,6.9-10.2,12.3-13.2c5.3-3.1,11.7-4.6,19.2-4.6c7.5,0,13.9,1.5,19.3,4.6c5.4,3,9.6,7.7,12.2,13.3
			c2.8,5.8,4.2,12.8,4.2,20.9v9.3h-23.1v-9.3c0.1-2.9-0.4-5.9-1.5-8.6c-0.8-2.2-2.3-4.2-4.3-5.5c-2.1-1.3-4.5-2-6.9-1.9
			c-2.4-0.1-4.7,0.6-6.8,1.9c-2,1.3-3.5,3.2-4.4,5.5c-1.1,2.8-1.6,5.7-1.6,8.7v77c-0.1,3,0.4,5.9,1.6,8.6c0.9,2.2,2.4,4.1,4.4,5.4
			c2,1.3,4.4,1.9,6.8,1.9c2.5,0.1,4.9-0.6,7-1.9c1.9-1.4,3.4-3.3,4.3-5.5c1-2.8,1.5-5.7,1.5-8.6v-9.3h23.1v9.3
			c-0.1,8.1-1.5,15.1-4.3,20.9c-2.6,5.6-6.8,10.2-12.2,13.3c-5.4,3-11.8,4.5-19.3,4.5C324.6,345.8,318.1,344.3,312.8,341.2z"/>
		
			<linearGradient id="SVGID_2_" gradientUnits="userSpaceOnUse" x1="296.24" y1="57.9086" x2="717.46" y2="57.9086" gradientTransform="matrix(1 0 0 -1 0 348)">
			<stop  offset="0" style="stop-color:#FEDA46"/>
			<stop  offset="6.000000e-02" style="stop-color:#FED22E"/>
			<stop  offset="0.13" style="stop-color:#FDCC1B"/>
			<stop  offset="0.2" style="stop-color:#FDC810"/>
			<stop  offset="0.28" style="stop-color:#FDC70C"/>
			<stop  offset="0.59" style="stop-color:#F4953D"/>
			<stop  offset="0.68" style="stop-color:#F3903F"/>
			<stop  offset="0.81" style="stop-color:#ED683C"/>
			<stop  offset="1" style="stop-color:#E93E3A"/>
		</linearGradient>
		<path class="st9" d="M398.8,342.2c-4.6-2.3-8.4-5.9-10.9-10.4c-2.7-5-4-10.7-3.8-16.4v-51.2c-0.2-5.6,1.1-11.2,3.8-16.2
			c2.5-4.4,6.3-8,10.9-10.2c10.9-4.7,23.3-4.7,34.2,0c4.6,2.2,8.4,5.7,10.8,10.2c2.6,5,3.9,10.6,3.7,16.2v51.5
			c0.2,5.6-1.1,11.2-3.7,16.2c-2.4,4.5-6.2,8.1-10.8,10.3c-5.3,2.5-11.2,3.7-17.1,3.5C409.3,345.8,403.6,344.6,398.8,342.2z
			 M422.5,321.9c1.6-1.8,2.3-4.4,2.3-7.7v-48.5c0-3.2-0.8-5.7-2.3-7.4c-3.7-3.5-9.6-3.5-13.3,0c-1.6,1.8-2.4,4.2-2.4,7.4v48.5
			c0,3.3,0.8,5.9,2.4,7.7C412.9,325.5,418.8,325.5,422.5,321.9z"/>
		
			<linearGradient id="SVGID_3_" gradientUnits="userSpaceOnUse" x1="296.24" y1="79.39" x2="717.46" y2="79.39" gradientTransform="matrix(1 0 0 -1 0 348)">
			<stop  offset="0" style="stop-color:#FEDA46"/>
			<stop  offset="6.000000e-02" style="stop-color:#FED22E"/>
			<stop  offset="0.13" style="stop-color:#FDCC1B"/>
			<stop  offset="0.2" style="stop-color:#FDC810"/>
			<stop  offset="0.28" style="stop-color:#FDC70C"/>
			<stop  offset="0.59" style="stop-color:#F4953D"/>
			<stop  offset="0.68" style="stop-color:#F3903F"/>
			<stop  offset="0.81" style="stop-color:#ED683C"/>
			<stop  offset="1" style="stop-color:#E93E3A"/>
		</linearGradient>
		<path class="st10" d="M489.9,313.5c-0.2,2.3,0.5,4.6,1.9,6.4c1.4,1.5,3.4,2.4,5.5,2.2h4.6v22h-9c-8.2,0-14.5-2.5-19.1-7.5
			c-4.5-5-6.8-12-6.8-21.1V193h22.9V313.5z"/>
		
			<linearGradient id="SVGID_4_" gradientUnits="userSpaceOnUse" x1="296.24" y1="79.39" x2="717.46" y2="79.39" gradientTransform="matrix(1 0 0 -1 0 348)">
			<stop  offset="0" style="stop-color:#FEDA46"/>
			<stop  offset="6.000000e-02" style="stop-color:#FED22E"/>
			<stop  offset="0.13" style="stop-color:#FDCC1B"/>
			<stop  offset="0.2" style="stop-color:#FDC810"/>
			<stop  offset="0.28" style="stop-color:#FDC70C"/>
			<stop  offset="0.59" style="stop-color:#F4953D"/>
			<stop  offset="0.68" style="stop-color:#F3903F"/>
			<stop  offset="0.81" style="stop-color:#ED683C"/>
			<stop  offset="1" style="stop-color:#E93E3A"/>
		</linearGradient>
		<path class="st11" d="M539.1,313.5c-0.2,2.3,0.5,4.6,1.9,6.4c1.4,1.5,3.4,2.4,5.5,2.2h4.6v22h-9c-8.2,0-14.5-2.5-19.1-7.5
			c-4.5-5-6.8-12-6.8-21.1V193h22.9L539.1,313.5z"/>
		
			<linearGradient id="SVGID_5_" gradientUnits="userSpaceOnUse" x1="296.24" y1="57.8937" x2="717.46" y2="57.8937" gradientTransform="matrix(1 0 0 -1 0 348)">
			<stop  offset="0" style="stop-color:#FEDA46"/>
			<stop  offset="6.000000e-02" style="stop-color:#FED22E"/>
			<stop  offset="0.13" style="stop-color:#FDCC1B"/>
			<stop  offset="0.2" style="stop-color:#FDC810"/>
			<stop  offset="0.28" style="stop-color:#FDC70C"/>
			<stop  offset="0.59" style="stop-color:#F4953D"/>
			<stop  offset="0.68" style="stop-color:#F3903F"/>
			<stop  offset="0.81" style="stop-color:#ED683C"/>
			<stop  offset="1" style="stop-color:#E93E3A"/>
		</linearGradient>
		<path class="st12" d="M569.3,338.1c-4.4-5.1-6.5-12.7-6.5-22.9c0-11.8,2.9-20.8,8.8-26.8s14.4-9.1,25.7-9h11l1.5,19h-11.7
			c-4.5,0-7.9,1.4-10.2,4.3s-3.4,7-3.4,12.6c0,3.7,0.9,6.4,2.6,8.3c1.7,1.8,4.3,2.8,7.7,2.8c4.2,0,7.5-1.2,9.7-3.5
			c2.2-2.4,3.3-5.8,3.3-10.4l2,9.5c0.1,4.6-0.8,9.1-2.6,13.3c-1.4,3.4-3.9,6.2-7.1,8.1c-3.5,1.9-7.5,2.8-11.5,2.7
			C580.1,345.8,573.7,343.2,569.3,338.1z M607.7,266c0-3.6-1-6.4-2.9-8.4s-4.7-3-8.2-3c-2.7-0.1-5.3,1-7.1,3c-1.7,2-2.5,4.8-2.6,8.4
			H565c0.1-10,2.9-17.8,8.5-23.4c5.6-5.5,13.4-8.3,23.5-8.3c6.9,0,12.7,1.2,17.6,3.7c4.7,2.4,8.6,6.1,11.1,10.8
			c2.6,4.7,3.8,10.5,3.8,17.1v78.2h-21.8V266z"/>
		
			<linearGradient id="SVGID_6_" gradientUnits="userSpaceOnUse" x1="296.24" y1="78.6009" x2="717.46" y2="78.6009" gradientTransform="matrix(1 0 0 -1 0 348)">
			<stop  offset="0" style="stop-color:#FEDA46"/>
			<stop  offset="6.000000e-02" style="stop-color:#FED22E"/>
			<stop  offset="0.13" style="stop-color:#FDCC1B"/>
			<stop  offset="0.2" style="stop-color:#FDC810"/>
			<stop  offset="0.28" style="stop-color:#FDC70C"/>
			<stop  offset="0.59" style="stop-color:#F4953D"/>
			<stop  offset="0.68" style="stop-color:#F3903F"/>
			<stop  offset="0.81" style="stop-color:#ED683C"/>
			<stop  offset="1" style="stop-color:#E93E3A"/>
		</linearGradient>
		<path class="st13" d="M651.2,193h22.9v151.2h-22.9V193z M680.7,340.9c-3.7-3.2-6.4-7.8-8.1-13.6l1.5-16c-0.1,2.6,0.4,5.1,1.2,7.5
			c0.7,1.9,1.9,3.5,3.5,4.7c1.7,1.1,3.6,1.7,5.6,1.6c3,0.1,5.9-1.3,7.6-3.7c1.8-2.5,2.8-6,2.8-10.5v-42c0-4.4-0.9-7.8-2.8-10.1
			c-1.8-2.4-4.7-3.7-7.6-3.6c-2-0.1-3.9,0.5-5.6,1.5c-1.6,1.1-2.8,2.7-3.5,4.5c-0.9,2.3-1.3,4.8-1.2,7.3l-2.2-14.3
			c2.3-6.2,5.4-11.1,9.4-14.6c3.6-3.3,8.2-5.2,13.1-5.2c4.5-0.1,8.8,1.2,12.5,3.8c3.7,2.8,6.4,6.6,7.9,10.9
			c1.9,5.6,2.9,11.5,2.7,17.4v46.7c0.1,6-0.8,12-2.8,17.7c-1.5,4.5-4.4,8.3-8.2,11.1c-3.8,2.6-8.3,3.9-12.8,3.8
			C688.9,345.8,684.2,344.1,680.7,340.9z"/>
	</g>
</g>
</svg>
