<svg xmlns="http://www.w3.org/2000/svg" xmlns:xlink="http://www.w3.org/1999/xlink" viewBox="0 0 525.05 534.66"><defs><style>.cls-1{fill:#ebebeb;}.cls-2{fill:none;}.cls-3{fill:#384951;}.cls-4{fill:#257ca5;}.cls-5{fill:#f99f27;}.cls-6{fill:#fdda47;}.cls-7{fill:#ef475f;}.cls-8{fill:#b41e47;}.cls-9{fill:#010101;}.cls-10{fill:url(#linear-gradient);}.cls-11{fill:url(#linear-gradient-2);}.cls-12{fill:url(#linear-gradient-3);}.cls-13{fill:url(#linear-gradient-5);}.cls-14{fill:url(#linear-gradient-6);}.cls-15{fill:#fecf0a;}.cls-16{fill:#fcb017;}.cls-17{fill:#ffe455;}.cls-18{fill:#f99e1c;}.cls-19{fill:#5ccaea;}.cls-20{fill:#fff;}</style><linearGradient id="linear-gradient" x1="212.2" y1="130.41" x2="513.96" y2="130.41" gradientTransform="translate(0 348)" gradientUnits="userSpaceOnUse"><stop offset="0" stop-color="#fdda47"/><stop offset="0.06" stop-color="#fdd231"/><stop offset="0.13" stop-color="#fdcd1e"/><stop offset="0.2" stop-color="#fdc916"/><stop offset="0.28" stop-color="#fdc713"/><stop offset="0.59" stop-color="#f4963e"/><stop offset="0.68" stop-color="#f29140"/><stop offset="0.81" stop-color="#ed683c"/><stop offset="1" stop-color="#e93f3a"/></linearGradient><linearGradient id="linear-gradient-2" x1="212.23" y1="147.69" x2="513.99" y2="147.69" xlink:href="#linear-gradient"/><linearGradient id="linear-gradient-3" x1="212.23" y1="130.33" x2="513.99" y2="130.33" xlink:href="#linear-gradient"/><linearGradient id="linear-gradient-5" x1="212.23" y1="147.86" x2="513.99" y2="147.86" xlink:href="#linear-gradient"/><linearGradient id="linear-gradient-6" x1="212.23" y1="131.02" x2="513.99" y2="131.02" xlink:href="#linear-gradient"/></defs><g id="Layer_2" data-name="Layer 2"><g id="Layer_1-2" data-name="Layer 1"><g id="Layer_2-2" data-name="Layer 2"><g id="Layer_1-2-2" data-name="Layer 1-2"><g id="freepik--background-complete--inject-11"><path class="cls-1" d="M513.23,505l-10.39.24-5.23.08c-1.79.08-3.51,0-5.3.08H492V505l-.07-10.77v-.49h.36l10.46.08c3.51,0,6.95.08,10.46.17h.21v.24c0,1.86-.07,3.64-.07,5.42Zm0,0-.14-5.43c-.08-1.78-.08-3.56-.15-5.34l.22.24c-3.51.08-6.95.16-10.46.16l-10.46.08.43-.48V505l-.36-.41c1.72,0,3.44,0,5.16.08l5.16.17Z" transform="translate(0 -6.47)"/><path class="cls-1" d="M501.55,518.53l-10.39.24-5.23.08c-1.79,0-3.51,0-5.3.09h-.36V507.28h.36l10.46.08c3.51,0,7,.08,10.46.16h.22v.24c0,1.86-.07,3.65-.15,5.43Zm0,0-.14-5.42c-.07-1.79-.07-3.57-.14-5.35l.21.24c-3.51.09-7,.17-10.46.17l-10.46.08.43-.49v10.77l-.36-.4c1.72,0,3.44,0,5.16.08l5.16.08Z" transform="translate(0 -6.47)"/><path class="cls-1" d="M524.91,518.53l-10.39.24-5.23.08c-1.79,0-3.51,0-5.3.09h-.36v-.41l-.07-10.77v-.48h.36l10.46.08c3.51,0,6.94.08,10.46.16h.21v.24c0,1.86-.07,3.65-.07,5.43Zm0,0-.15-5.42c0-1.79-.07-3.57-.14-5.35l.22.24c-3.52.09-7,.17-10.46.17l-10.46.08.43-.49v10.77l-.36-.4c1.72,0,3.44,0,5.16.08l5.23.08Z" transform="translate(0 -6.47)"/><path class="cls-1" d="M215.06,376.75l-10.38.24-5.23.08h-5.66v-.41l-.08-10.77v-.48h.36l10.46.08c3.51,0,6.95.08,10.46.16h.22v.24c0,1.87-.07,3.65-.15,5.43Zm0,0-.14-5.43c0-1.78-.07-3.56-.07-5.34l.21.24c-3.51,0-6.95.16-10.46.16l-10.46.08.36-.48v10.77l-.36-.41c1.72,0,3.44,0,5.16.08l5.23.08Z" transform="translate(0 -6.47)"/><path class="cls-1" d="M203.39,390.35l-10.39.24-5.3.08c-1.72,0-3.51,0-5.3.08H182v-.4L182,379.58v-.49h.43l10.46.08c3.51,0,6.94.09,10.45.17h.22v.24c0,1.86-.07,3.64-.07,5.42Zm0,0-.15-5.43c0-1.78-.07-3.56-.07-5.34l.22.24c-3.51.08-6.95.16-10.46.16l-10.46.09.43-.49v10.77l-.36-.41c1.72,0,3.44,0,5.16.09l5.16.08Z" transform="translate(0 -6.47)"/><path class="cls-1" d="M226.74,390.35l-10.39.24-5.23.08c-1.79,0-3.51,0-5.3.08h-.36v-.4l-.07-10.77v-.49h.36l10.46.08c3.51,0,6.95.09,10.46.17h.21v.24c0,1.86-.07,3.64-.07,5.42Zm0,0-.14-5.43c0-1.78-.07-3.56-.07-5.34l.21.24c-3.51.08-7,.16-10.46.16l-10.46.09.36-.49v10.77l-.36-.41c1.72,0,3.44,0,5.16.09l5.23.08Z" transform="translate(0 -6.47)"/><path class="cls-1" d="M44.56,448.08l-10.39.25-5.23.08c-1.79,0-3.51,0-5.3.08h-.29V436.83h.36l10.46.08c3.51,0,6.95.08,10.46.16h.22v.24c0,1.87-.07,3.65-.07,5.43Zm0,0-.14-5.42c0-1.78-.07-3.56-.07-5.35l.21.25c-3.51.08-7,.16-10.46.16l-10.46.08.36-.49-.07,10.77-.36-.4c1.72,0,3.44,0,5.16.08l5.16.08Z" transform="translate(0 -6.47)"/><path class="cls-1" d="M391.23,376.75l-10.39.24-5.23.08c-1.79.08-3.51,0-5.3.08H370v-.4L369.88,366v-.49h.36l10.46.08c3.51,0,6.94.08,10.45.16h.22V366c0,1.86-.07,3.64-.07,5.42Zm0,0-.08-5.43c-.07-1.78-.07-3.56-.07-5.34l.22.24c-3.51.08-6.95.16-10.46.16l-10.46.08.36-.48-.07,10.77-.36-.41c1.72,0,3.44,0,5.16.08l5.23.08Z" transform="translate(0 -6.47)"/><path class="cls-1" d="M512,272.13l-10.39.24-5.23.08c-1.79,0-3.51,0-5.3.08h-.36V260.87h.36l10.46.08c3.51,0,6.95.08,10.46.16h.22v.25c0,1.86-.08,3.64-.08,5.42Zm0,0-.14-5.43c0-1.78-.07-3.56-.07-5.34l.21.24c-3.51,0-6.95.16-10.46.16l-10.46.08.36-.48v10.77l-.36-.41c1.72,0,3.44,0,5.16.08l5.16.08Z" transform="translate(0 -6.47)"/><path class="cls-1" d="M523.69,285.73,513.3,286l-5.23.08c-1.79.09-3.51,0-5.3.09h-.36v-.41L502.34,275v-.48h.36l10.46.08c3.51,0,7,.08,10.46.16h.21V275c0,1.86-.07,3.64-.14,5.43Zm0,0-.14-5.42c0-1.79-.08-3.57-.08-5.35l.22.24c-3.51.08-7,.17-10.46.17l-10.46.08.36-.49v10.77l-.36-.4c1.72,0,3.44,0,5.16.08l5.23.08Z" transform="translate(0 -6.47)"/><path class="cls-1" d="M21.28,272.13l-10.39.24-5.23.08c-1.72,0-3.51,0-5.3.08H0V260.87H.43l10.46.08c3.44,0,7,.08,10.46.16h.14v.25c0,1.86-.07,3.64-.07,5.42Zm0,0-.15-5.43c0-1.78-.07-3.56-.07-5.34l.22.24c-3.51.08-7,.16-10.46.16l-10.46.08.36-.48v10.77l-.36-.41H5.52l5.23.08Z" transform="translate(0 -6.47)"/><rect class="cls-2" x="107.46" y="256.83" width="93.63" height="76.93"/><path class="cls-1" d="M201.45,340.71H107v-77.9h94.35v77.9Zm-93.56-1h92.77V263.79H107.89Z" transform="translate(0 -6.47)"/><path class="cls-3" d="M116.49,269.13a2.17,2.17,0,1,1-4.3,0,2.49,2.49,0,0,1,2.15-2.67h0A2.54,2.54,0,0,1,116.49,269.13Z" transform="translate(0 -6.47)"/><path class="cls-1" d="M125.3,269.13a2.17,2.17,0,1,1-4.3,0,2.49,2.49,0,0,1,2.15-2.67h0A2.54,2.54,0,0,1,125.3,269.13Z" transform="translate(0 -6.47)"/><path class="cls-4" d="M134,269.13a2.17,2.17,0,1,1-4.3,0,2.49,2.49,0,0,1,2.15-2.67h0A2.44,2.44,0,0,1,134,269.13Z" transform="translate(0 -6.47)"/><rect class="cls-1" x="107.46" y="267.93" width="93.63" height="0.97"/><path class="cls-1" d="M124.44,364.76c0-1.21.14-4.37.14-5.75,0-5.83-1.72-8.5-6.16-8.66a3.59,3.59,0,0,1-3.37-3.89,3.55,3.55,0,0,1,3.37-3.89c4.44-.24,6.16-2.83,6.16-8.74,0-1.38-.14-4.54-.14-5.75,0-7.77,2.72-12.71,12.89-15.47a2.76,2.76,0,0,1,3.51,2.11,6.26,6.26,0,0,1,.15,1.21,3.45,3.45,0,0,1-1.87,3.24c-6.37,2.43-7.3,4.86-7.3,10.37,0,1.62.14,4.21.14,5.91,0,6.23-2.51,9.31-6.8,11,4.37,1.78,6.8,4.7,6.8,11,0,1.7-.14,4.3-.14,5.91,0,5.43.93,7.94,7.3,10.37A3.59,3.59,0,0,1,141,377a3,3,0,0,1-2.58,3.4,2,2,0,0,1-1-.16C127.16,377.56,124.44,372.62,124.44,364.76Z" transform="translate(0 -6.47)"/><path class="cls-1" d="M163,328.08c0,1.21-.14,4.37-.14,5.75,0,5.91,1.79,8.5,6.23,8.74a3.64,3.64,0,0,1,3.22,4.05,3.59,3.59,0,0,1-3.22,3.65c-4.51.16-6.23,2.83-6.23,8.66,0,1.38.14,4.54.14,5.75,0,7.85-2.72,12.88-12.89,15.55a2.81,2.81,0,0,1-3.51-2.11,6.29,6.29,0,0,1-.15-1.13,3.45,3.45,0,0,1,1.94-3.32c6.3-2.43,7.23-4.86,7.23-10.37,0-1.62-.14-4.29-.14-5.91,0-6.23,2.51-9.31,6.88-11-4.37-1.78-6.88-4.7-6.88-11,0-1.7.14-4.29.14-5.91,0-5.43-.93-7.94-7.23-10.37a3.43,3.43,0,0,1-1.94-3.24,3.13,3.13,0,0,1,2.65-3.4,2.23,2.23,0,0,1,1,.16C160.26,315.37,163,320.31,163,328.08Z" transform="translate(0 -6.47)"/><path class="cls-1" d="M451.83,415.05a3.68,3.68,0,0,1,0,4.61,2.32,2.32,0,0,1-1.93,1,2.41,2.41,0,0,1-1.93-1l-12-14.74a.33.33,0,0,1-.21-.32l-.15-.08c-.07-.16-.07-.24-.14-.41-.07,0-.14-.08-.14-.24a.48.48,0,0,1-.08-.32.33.33,0,0,1-.07-.25V403c0-.08-.07-.16-.07-.32a.36.36,0,0,1,.07-.25v-.32c0-.08.07-.16.07-.24a.63.63,0,0,1,.08-.41c.07-.16.07,0,.07-.08l.21-.48s0-.09.07-.09a.65.65,0,0,1,.29-.32l12-14.82a2.41,2.41,0,0,1,3.72-.08l.07.08a3.81,3.81,0,0,1,0,4.7h0l-10.1,12.39Z" transform="translate(0 -6.47)"/><path class="cls-1" d="M462.65,416.67,473,386.46a2.23,2.23,0,0,1,2.94-1.54c.07,0,.07.08.14.08a3,3,0,0,1,1.22,3.65h0L467,418.93a2.45,2.45,0,0,1-2.15,1.7,1.75,1.75,0,0,1-.86-.24,3,3,0,0,1-1.29-3.64Z" transform="translate(0 -6.47)"/><path class="cls-1" d="M498,404.52h0a1.48,1.48,0,0,1-.29.4l-12,14.74a2.41,2.41,0,0,1-3.73.08l-.07-.08a3.83,3.83,0,0,1,0-4.69h0L492,402.58l-10.1-12.39a3.84,3.84,0,0,1,0-4.7h0a2.42,2.42,0,0,1,3.73-.08l.07.08,12,14.74c.15.08.22.24.29.32v.08l.22.49a.07.07,0,0,0,.07.08,1.35,1.35,0,0,0,.14.49v1.53c-.07.17-.07.33-.14.49s-.07.08-.07.16S498,404.28,498,404.52Z" transform="translate(0 -6.47)"/><path class="cls-1" d="M429.63,340.47c0,6.56-4.16,11.9-9.46,12.39H362.5c-6.59-.24-11.82-7.05-11.54-15.14.22-7.13,4.59-13,10.39-14,.36-13.61,9.67-24.21,20.85-23.81,8.24.32,15.4,6.72,18.27,16.11,5.94-3.64,13.11-.72,16.12,6.48a19.49,19.49,0,0,1,1.29,5.67,11.38,11.38,0,0,1,1.64-.16C425,328,429.63,333.59,429.63,340.47Z" transform="translate(0 -6.47)"/><path class="cls-1" d="M486,509.62l6.52-12.87-3.23-2.43a3.93,3.93,0,0,1-1.36-3.4c.07-.73.07-1.46.07-2.19a3.86,3.86,0,0,1,1.58-3.32l3.37-2.18-5.88-13.36-3.37,2.18a2.35,2.35,0,0,1-3-.24c-.57-.49-1.07-.89-1.64-1.3a3.72,3.72,0,0,1-1.51-3.24l.15-4.61-12.4-.49-.14,4.7a3.54,3.54,0,0,1-1.65,3.08l-.86.48c-.29.16-.57.41-.86.57a2.44,2.44,0,0,1-3.08,0l-3.22-2.43L449,481.44l3.22,2.43a4.25,4.25,0,0,1,1.36,3.4c-.07.73-.07,1.46-.07,2.19a3.68,3.68,0,0,1-1.57,3.32L448.54,495l5.87,13.36,3.37-2.19a2.46,2.46,0,0,1,3.08.24,11.35,11.35,0,0,0,1.58,1.14,3.7,3.7,0,0,1,1.57,3.24l-.14,4.69,12.39.49.15-4.62a3.81,3.81,0,0,1,1.72-3.15l.86-.49a4.29,4.29,0,0,0,.78-.57,2.44,2.44,0,0,1,3.08,0Zm-9.39-10.44c-4.58,4-11,2.75-14.18-2.84S460.22,483,464.73,479s11-2.76,14.18,2.83a18.07,18.07,0,0,1,1.29,2.83c1.65,5.27.22,11.1-3.58,14.5Z" transform="translate(0 -6.47)"/><path class="cls-1" d="M417.37,540.23,424.9,535l-1.36-2.84a3.16,3.16,0,0,1,.07-2.67c.21-.4.43-.89.64-1.37a2.07,2.07,0,0,1,1.87-1.38h2.65V516.1h-2.65a2.16,2.16,0,0,1-1.87-1.37c-.21-.49-.43-.9-.64-1.38a3.15,3.15,0,0,1-.07-2.67l1.29-2.84-7.53-5.34-1.36,2.83a2,2,0,0,1-1.93,1.22h-1.29a2,2,0,0,1-1.94-1.22l-1.36-2.91-7.52,5.34,1.36,2.84a3.16,3.16,0,0,1-.07,2.67c-.21.4-.43.89-.64,1.37a2.15,2.15,0,0,1-1.87,1.38H398v10.53h2.65a2.14,2.14,0,0,1,1.87,1.37c.21.49.43.89.64,1.38a3.15,3.15,0,0,1,.07,2.67l-1.36,2.84,7.52,5.26,1.36-2.83a2,2,0,0,1,1.94-1.22H414a2,2,0,0,1,1.93,1.22Zm-3.86-10.12c-3.94,0-7.1-3.89-7.1-8.66s3.16-8.67,7.1-8.67,7.09,3.89,7.09,8.67-3.15,8.58-7.09,8.66Z" transform="translate(0 -6.47)"/><path class="cls-1" d="M34.67,311.08a2.52,2.52,0,0,1,1,2.34V315a2.92,2.92,0,0,1-1,2.35l-2.29,1.62,4.37,9.15L39,326.46a1.77,1.77,0,0,1,2.15.08,5.81,5.81,0,0,0,1.15.81,2.67,2.67,0,0,1,1.15,2.27v3.24h8.74v-3.24a2.79,2.79,0,0,1,1.14-2.27,9,9,0,0,0,1.15-.81,1.77,1.77,0,0,1,2.15-.08L59,328.08l4.37-9.15L61,317.31A2.55,2.55,0,0,1,60,315v-1.54a2.2,2.2,0,0,1,.86-2.34l2.3-1.62-4.3-9.15-2.29,1.62a1.77,1.77,0,0,1-2.15-.09A6.78,6.78,0,0,0,53.3,301a2.64,2.64,0,0,1-1.15-2.26v-3.24H43.49v3.24A2.74,2.74,0,0,1,42.34,301a11.53,11.53,0,0,0-1.15.81,1.77,1.77,0,0,1-2.15.09l-2.29-1.62-4.37,9.15Zm13.19-5.59c3.94,0,7.09,3.88,7.09,8.66s-3.15,8.67-7.09,8.67-7.1-3.89-7.1-8.67h0c0-4.78,3.16-8.66,7.1-8.66Z" transform="translate(0 -6.47)"/></g><path class="cls-5" d="M181.68,473.75v9.48h9.6v9.39h9.6V473.75Z" transform="translate(0 -6.47)"/><path class="cls-5" d="M152.74,473.75H172v9.48H152.74Z" transform="translate(0 -6.47)"/><path class="cls-5" d="M123.87,473.75h19.27v9.48H123.87Z" transform="translate(0 -6.47)"/><path class="cls-6" d="M95,473.75h19.28v9.48H95Z" transform="translate(0 -6.47)"/><path class="cls-6" d="M66.12,473.75H85.39v9.48H66.12Z" transform="translate(0 -6.47)"/><path class="cls-6" d="M37.25,475.37V492.7h9.6v-9.47h9.6v-9.48H37.25Z" transform="translate(0 -6.47)"/><path class="cls-5" d="M191.28,530.35h-9.6v9.4H201V520.88h-9.67Z" transform="translate(0 -6.47)"/><path class="cls-6" d="M46.85,521h-9.6v18.87h19.2v-9.4h-9.6Z" transform="translate(0 -6.47)"/><path class="cls-5" d="M152.74,530.35H172v9.4H152.74Z" transform="translate(0 -6.47)"/><path class="cls-5" d="M123.87,530.35h19.27v9.4H123.87Z" transform="translate(0 -6.47)"/><path class="cls-6" d="M95,530.35h19.28v9.4H95Z" transform="translate(0 -6.47)"/><path class="cls-6" d="M66.12,530.35H85.39v9.4H66.12Z" transform="translate(0 -6.47)"/><path class="cls-6" d="M37.25,502.09h9.6v9.4h-9.6Z" transform="translate(0 -6.47)"/><path class="cls-5" d="M191.28,502.09h9.6v9.4h-9.6Z" transform="translate(0 -6.47)"/><path class="cls-6" d="M83.1,494l-6.8,6.64L69.49,494l-6.8,6.64,6.8,6.64-6.8,6.64,6.8,6.64,6.81-6.64,6.8,6.64,6.81-6.64-6.81-6.64,6.81-6.64Z" transform="translate(0 -6.47)"/><path class="cls-5" d="M126.09,507.36l6.8,6.64-6.8,6.64L119.28,514V500.64l6.81-6.64,6.8,6.64Z" transform="translate(0 -6.47)"/><path class="cls-6" d="M119.28,500.64V514l-6.81,6.64-6.8-6.64,6.8-6.64-6.8-6.64,6.8-6.64Z" transform="translate(0 -6.47)"/><path class="cls-5" d="M175.45,500.64,168.64,494l-6.81,6.64L155,494l-6.81,6.64,6.81,6.64-6.81,6.64,6.81,6.64,6.8-6.64,6.81,6.64,6.81-6.64-6.81-6.64Z" transform="translate(0 -6.47)"/><path class="cls-7" d="M54.66,464.36H53.44a16.12,16.12,0,0,1-16.26-15.95V433.1a16.17,16.17,0,0,1,16.26-16h1.22a16.11,16.11,0,0,1,16.26,16V436h-9.6V433.1a6.53,6.53,0,0,0-6.59-6.47H53.52a6.53,6.53,0,0,0-6.6,6.47v15.31a6.54,6.54,0,0,0,6.6,6.48h1.21a6.53,6.53,0,0,0,6.59-6.48v-2.92h9.6v2.92A16.16,16.16,0,0,1,54.66,464.36Z" transform="translate(0 -6.47)"/><path class="cls-7" d="M98,464.36H96.79a16.12,16.12,0,0,1-16.27-15.95V433.1a16.17,16.17,0,0,1,16.27-16H98a16.12,16.12,0,0,1,16.27,16v15.31A16.17,16.17,0,0,1,98,464.36Zm-1.21-37.82a6.54,6.54,0,0,0-6.6,6.48v15.31a6.58,6.58,0,0,0,6.6,6.47H98a6.53,6.53,0,0,0,6.59-6.47V433A6.53,6.53,0,0,0,98,426.54Z" transform="translate(0 -6.47)"/><path class="cls-8" d="M141.35,464.36H123.87V417.15h17.48a16.12,16.12,0,0,1,16.26,16v15.31A16.17,16.17,0,0,1,141.35,464.36Zm-7.81-9.47h7.81a6.54,6.54,0,0,0,6.59-6.48V433.1a6.53,6.53,0,0,0-6.59-6.47h-7.81Z" transform="translate(0 -6.47)"/><path class="cls-8" d="M200.88,426.54v-9.39H167.21v47.21h33.67V455H176.81v-9.48h17.62V436H176.81v-9.48Z" transform="translate(0 -6.47)"/><path class="cls-9" d="M224.09,537.16a24.45,24.45,0,0,1-8.81-10.69,42.57,42.57,0,0,1-3.08-16.85V447.19c0-6.64,1-12.22,3.08-16.92a23.05,23.05,0,0,1,8.81-10.69,24.37,24.37,0,0,1,13.76-3.72,24.75,24.75,0,0,1,13.82,3.72,22.77,22.77,0,0,1,8.74,10.77,43,43,0,0,1,3,16.92v7.53H246.87v-7.53a19.1,19.1,0,0,0-1.07-7,9,9,0,0,0-3.08-4.45,8,8,0,0,0-4.95-1.54,7.77,7.77,0,0,0-4.87,1.54,9.11,9.11,0,0,0-3.15,4.45,21.25,21.25,0,0,0-1.15,7V509.7a17.57,17.57,0,0,0,1.15,7A9.26,9.26,0,0,0,232.9,521a8.71,8.71,0,0,0,9.89,0,10.41,10.41,0,0,0,3.08-4.45,23,23,0,0,0,1.07-7v-7.53h16.55v7.53a44.27,44.27,0,0,1-3.08,16.93,23.16,23.16,0,0,1-8.74,10.77,27.42,27.42,0,0,1-27.58-.16Z" transform="translate(0 -6.47)"/><path class="cls-9" d="M285.7,538a19.4,19.4,0,0,1-7.81-8.42,29,29,0,0,1-2.72-13.28V474.8a28.53,28.53,0,0,1,2.72-13.11,19,19,0,0,1,7.81-8.26,27.69,27.69,0,0,1,24.5,0,18,18,0,0,1,7.74,8.26,29.4,29.4,0,0,1,2.65,13.11v41.71a29.37,29.37,0,0,1-2.65,13.11A18.21,18.21,0,0,1,310.2,538,24,24,0,0,1,298,540.8,23.61,23.61,0,0,1,285.7,538Zm17-16.43c1.15-1.46,1.65-3.57,1.65-6.24V476a9.64,9.64,0,0,0-1.65-6,6.39,6.39,0,0,0-9.53,0,9.33,9.33,0,0,0-1.72,6v39.27a9.94,9.94,0,0,0,1.72,6.24A6.29,6.29,0,0,0,302.68,521.53Z" transform="translate(0 -6.47)"/><path class="cls-9" d="M351,514.73a8.11,8.11,0,0,0,1.37,5.18,4.54,4.54,0,0,0,3.94,1.78h3.29V539.5h-6.45c-5.87,0-10.38-2-13.68-6.07s-4.87-9.72-4.87-17.09V417.15H351Z" transform="translate(0 -6.47)"/><path class="cls-9" d="M386.21,514.73a8.16,8.16,0,0,0,1.36,5.18,4.57,4.57,0,0,0,3.94,1.78h3.3V539.5h-6.45c-5.87,0-10.39-2-13.68-6.07s-4.87-9.72-4.87-17.09V417.15h16.4Z" transform="translate(0 -6.47)"/><path class="cls-9" d="M407.85,534.64c-3.16-4.12-4.66-10.28-4.66-18.54,0-9.55,2.08-16.84,6.3-21.7s10.32-7.37,18.42-7.29h7.88l1.07,15.39h-8.38a8.33,8.33,0,0,0-7.31,3.48c-1.65,2.35-2.43,5.67-2.43,10.2,0,3,.64,5.19,1.86,6.72a6.85,6.85,0,0,0,5.52,2.27,8.67,8.67,0,0,0,6.94-2.83c1.58-2,2.37-4.7,2.37-8.42l1.43,7.69A28.81,28.81,0,0,1,435,532.38a13.38,13.38,0,0,1-5.09,6.56,15,15,0,0,1-8.24,2.18C415.58,540.88,411,538.77,407.85,534.64Zm27.51-58.38a10.29,10.29,0,0,0-2.08-6.8A7.31,7.31,0,0,0,427.4,467a6.18,6.18,0,0,0-5.08,2.43c-1.22,1.62-1.79,3.89-1.86,6.8H404.77c.07-8.09,2.07-14.41,6.09-18.95s9.6-6.72,16.83-6.72a24.75,24.75,0,0,1,12.61,3,19.67,19.67,0,0,1,7.95,8.74A31.61,31.61,0,0,1,451,476.18V539.5H435.36V476.26Z" transform="translate(0 -6.47)"/><path class="cls-9" d="M466.52,417.15h16.41V539.58H466.52Zm21.13,119.76c-2.65-2.59-4.58-6.31-5.8-11l1.08-13a18.72,18.72,0,0,0,.86,6.08,8.29,8.29,0,0,0,2.5,3.8,6.59,6.59,0,0,0,9.46-1.7,15.74,15.74,0,0,0,2-8.5v-34c0-3.56-.65-6.32-2-8.18a6.31,6.31,0,0,0-5.45-2.91,6.58,6.58,0,0,0-4,1.21,7.83,7.83,0,0,0-2.5,3.65,16.06,16.06,0,0,0-.86,5.91l-1.58-11.58c1.65-5,3.87-9,6.73-11.82a13,13,0,0,1,9.39-4.22,13.71,13.71,0,0,1,8.95,3.08,18.86,18.86,0,0,1,5.66,8.83A44.64,44.64,0,0,1,514,476.67v37.81a46.2,46.2,0,0,1-2,14.33,18.34,18.34,0,0,1-5.87,9,14.39,14.39,0,0,1-9.17,3.08A13,13,0,0,1,487.65,536.91Z" transform="translate(0 -6.47)"/><path class="cls-10" d="M224.09,537.16a24.45,24.45,0,0,1-8.81-10.69,42.57,42.57,0,0,1-3.08-16.85V447.19c0-6.64,1-12.22,3.08-16.92a23.05,23.05,0,0,1,8.81-10.69,24.37,24.37,0,0,1,13.76-3.72,24.75,24.75,0,0,1,13.82,3.72,22.77,22.77,0,0,1,8.74,10.77,43,43,0,0,1,3,16.92v7.53H246.87v-7.53a19.1,19.1,0,0,0-1.07-7,9,9,0,0,0-3.08-4.45,8,8,0,0,0-4.95-1.54,7.77,7.77,0,0,0-4.87,1.54,9.11,9.11,0,0,0-3.15,4.45,21.25,21.25,0,0,0-1.15,7V509.7a17.57,17.57,0,0,0,1.15,7A9.26,9.26,0,0,0,232.9,521a8.71,8.71,0,0,0,9.89,0,10.41,10.41,0,0,0,3.08-4.45,23,23,0,0,0,1.07-7v-7.53h16.55v7.53a44.27,44.27,0,0,1-3.08,16.93,23.16,23.16,0,0,1-8.74,10.77,27.42,27.42,0,0,1-27.58-.16Z" transform="translate(0 -6.47)"/><path class="cls-11" d="M285.7,538a19.4,19.4,0,0,1-7.81-8.42,29,29,0,0,1-2.72-13.28V474.8a28.53,28.53,0,0,1,2.72-13.11,19,19,0,0,1,7.81-8.26,27.69,27.69,0,0,1,24.5,0,18,18,0,0,1,7.74,8.26,29.4,29.4,0,0,1,2.65,13.11v41.71a29.37,29.37,0,0,1-2.65,13.11A18.21,18.21,0,0,1,310.2,538,24,24,0,0,1,298,540.8,23.61,23.61,0,0,1,285.7,538Zm17-16.43c1.15-1.46,1.65-3.57,1.65-6.24V476a9.64,9.64,0,0,0-1.65-6,6.39,6.39,0,0,0-9.53,0,9.33,9.33,0,0,0-1.72,6v39.27a9.94,9.94,0,0,0,1.72,6.24A6.29,6.29,0,0,0,302.68,521.53Z" transform="translate(0 -6.47)"/><path class="cls-12" d="M351,514.73a8.11,8.11,0,0,0,1.37,5.18,4.54,4.54,0,0,0,3.94,1.78h3.29V539.5h-6.45c-5.87,0-10.38-2-13.68-6.07s-4.87-9.72-4.87-17.09V417.15H351Z" transform="translate(0 -6.47)"/><path class="cls-12" d="M386.21,514.73a8.16,8.16,0,0,0,1.36,5.18,4.57,4.57,0,0,0,3.94,1.78h3.3V539.5h-6.45c-5.87,0-10.39-2-13.68-6.07s-4.87-9.72-4.87-17.09V417.15h16.4Z" transform="translate(0 -6.47)"/><path class="cls-13" d="M407.85,534.64c-3.16-4.12-4.66-10.28-4.66-18.54,0-9.55,2.08-16.84,6.3-21.7s10.32-7.37,18.42-7.29h7.88l1.07,15.39h-8.38a8.33,8.33,0,0,0-7.31,3.48c-1.65,2.35-2.43,5.67-2.43,10.2,0,3,.64,5.19,1.86,6.72a6.85,6.85,0,0,0,5.52,2.27,8.67,8.67,0,0,0,6.94-2.83c1.58-2,2.37-4.7,2.37-8.42l1.43,7.69A28.81,28.81,0,0,1,435,532.38a13.38,13.38,0,0,1-5.09,6.56,15,15,0,0,1-8.24,2.18C415.58,540.88,411,538.77,407.85,534.64Zm27.51-58.38a10.29,10.29,0,0,0-2.08-6.8A7.31,7.31,0,0,0,427.4,467a6.18,6.18,0,0,0-5.08,2.43c-1.22,1.62-1.79,3.89-1.86,6.8H404.77c.07-8.09,2.07-14.41,6.09-18.95s9.6-6.72,16.83-6.72a24.75,24.75,0,0,1,12.61,3,19.67,19.67,0,0,1,7.95,8.74A31.61,31.61,0,0,1,451,476.18V539.5H435.36V476.26Z" transform="translate(0 -6.47)"/><path class="cls-14" d="M466.52,417.15h16.41V539.58H466.52Zm21.13,119.76c-2.65-2.59-4.58-6.31-5.8-11l1.08-13a18.72,18.72,0,0,0,.86,6.08,8.29,8.29,0,0,0,2.5,3.8,6.59,6.59,0,0,0,9.46-1.7,15.74,15.74,0,0,0,2-8.5v-34c0-3.56-.65-6.32-2-8.18a6.31,6.31,0,0,0-5.45-2.91,6.58,6.58,0,0,0-4,1.21,7.83,7.83,0,0,0-2.5,3.65,16.06,16.06,0,0,0-.86,5.91l-1.58-11.58c1.65-5,3.87-9,6.73-11.82a13,13,0,0,1,9.39-4.22,13.71,13.71,0,0,1,8.95,3.08,18.86,18.86,0,0,1,5.66,8.83A44.64,44.64,0,0,1,514,476.67v37.81a46.2,46.2,0,0,1-2,14.33,18.34,18.34,0,0,1-5.87,9,14.39,14.39,0,0,1-9.17,3.08A13,13,0,0,1,487.65,536.91Z" transform="translate(0 -6.47)"/></g></g><path class="cls-5" d="M125.83,71.05a15.67,15.67,0,0,1-6.56-6.39,19.69,19.69,0,0,1-2.3-9.75V30.09a19.69,19.69,0,0,1,2.3-9.75A15.67,15.67,0,0,1,125.83,14a23.44,23.44,0,0,1,20,0,15.61,15.61,0,0,1,6.56,6.39,19.69,19.69,0,0,1,2.31,9.75V54.91a19.69,19.69,0,0,1-2.31,9.75,15.61,15.61,0,0,1-6.56,6.39,23.44,23.44,0,0,1-20,0ZM140,61.47a6.82,6.82,0,0,0,2.68-2.8,9.11,9.11,0,0,0,.93-4.22V30.51a9.11,9.11,0,0,0-.93-4.22A6.65,6.65,0,0,0,140,23.51a9.19,9.19,0,0,0-8.22,0,6.57,6.57,0,0,0-2.67,2.78,9,9,0,0,0-.94,4.22V54.45a9,9,0,0,0,.94,4.22,6.74,6.74,0,0,0,2.67,2.8,9,9,0,0,0,8.22,0Z" transform="translate(0 -6.47)"/><path class="cls-5" d="M171.07,71.05a15.61,15.61,0,0,1-6.56-6.39,19.69,19.69,0,0,1-2.3-9.75V30.09a19.69,19.69,0,0,1,2.3-9.75A15.61,15.61,0,0,1,171.07,14a23.44,23.44,0,0,1,20,0,15.61,15.61,0,0,1,6.56,6.39,19.69,19.69,0,0,1,2.3,9.75V54.91a19.69,19.69,0,0,1-2.3,9.75,15.61,15.61,0,0,1-6.56,6.39,23.44,23.44,0,0,1-20,0Zm14.13-9.58a6.82,6.82,0,0,0,2.68-2.8,9.11,9.11,0,0,0,.93-4.22V30.51a9.11,9.11,0,0,0-.93-4.22,6.65,6.65,0,0,0-2.68-2.78,9.19,9.19,0,0,0-8.22,0,6.65,6.65,0,0,0-2.68,2.78,9.11,9.11,0,0,0-.93,4.22V54.45a9.11,9.11,0,0,0,.93,4.22,6.82,6.82,0,0,0,2.68,2.8,9,9,0,0,0,8.22,0Z" transform="translate(0 -6.47)"/><path class="cls-5" d="M208.94,12.33h10.87V72.67H208.94Zm5,26.52h15.11a5.46,5.46,0,0,0,2.92-.79,5.15,5.15,0,0,0,1.95-2.2,7.37,7.37,0,0,0,.69-3.28V29.14a8.07,8.07,0,0,0-.66-3.37A5.16,5.16,0,0,0,232,23.53a5.58,5.58,0,0,0-3-.79H214V12.33h15.15a18.9,18.9,0,0,1,8.82,1.95,13.88,13.88,0,0,1,5.81,5.6,17.25,17.25,0,0,1,2,8.59v4.86a16.8,16.8,0,0,1-2,8.46,13.76,13.76,0,0,1-5.83,5.55,19.18,19.18,0,0,1-8.8,1.93H214Z" transform="translate(0 -6.47)"/><path class="cls-5" d="M261.23,71.8a16,16,0,0,1-6.41-4.42,17.58,17.58,0,0,1-3.67-7.28l10.08-4.69a11,11,0,0,0,3.7,5.48,9.64,9.64,0,0,0,5.93,1.86,9.06,9.06,0,0,0,5.67-1.59,5.25,5.25,0,0,0,2.05-4.38V54.2a4.85,4.85,0,0,0-1.22-3.4,8.83,8.83,0,0,0-3.05-2.1q-1.83-.77-4.94-1.76a.59.59,0,0,1-.23,0l-.19-.08-.45-.17a49.07,49.07,0,0,1-8.2-3,14,14,0,0,1-5.42-4.85q-2.24-3.3-2.24-8.91V28.35a17.37,17.37,0,0,1,2.22-9,14.26,14.26,0,0,1,6.42-5.71,24,24,0,0,1,10.16-2,20.53,20.53,0,0,1,7.87,1.42,14.29,14.29,0,0,1,5.77,4.23,18.92,18.92,0,0,1,3.46,7L279,29.14A12.5,12.5,0,0,0,275.66,24a7.32,7.32,0,0,0-4.88-1.79,8.72,8.72,0,0,0-5.44,1.48,4.83,4.83,0,0,0-1.91,4v1.91a5.36,5.36,0,0,0,1.27,3.7,9.42,9.42,0,0,0,3.11,2.26A35.23,35.23,0,0,0,273,37.31a2.06,2.06,0,0,1,.48.15,2.86,2.86,0,0,0,.52.18,1.51,1.51,0,0,0,.33.13l.37.08a42.75,42.75,0,0,1,7.62,3,13.71,13.71,0,0,1,5,4.82,15.54,15.54,0,0,1,2,8.46v2.53a16.9,16.9,0,0,1-2.26,8.93,14.45,14.45,0,0,1-6.58,5.7,27.77,27.77,0,0,1-19.3.48Z" transform="translate(0 -6.47)"/><path class="cls-5" d="M293.61,61.84h10.83V72.67H293.61Z" transform="translate(0 -6.47)"/><path class="cls-5" d="M310.5,61.84h10.83V72.67H310.5Z" transform="translate(0 -6.47)"/><path class="cls-15" d="M405.42,38.15c0-.86,0-1.72-.09-2.56a11,11,0,0,1-4,.74A10.59,10.59,0,0,1,390.6,25.92c0-2.09,1.16-4.62,3.52-7.71a37.61,37.61,0,0,0-17.74-3.7c-20.35.71-36.25,17.3-35.51,37a34.85,34.85,0,0,0,1.34,8.35,33.71,33.71,0,0,0,6.31,8.28,37.46,37.46,0,0,0,20,5.74C388.91,73.92,405.42,57.9,405.42,38.15Zm-23.57,1.79a4.22,4.22,0,0,1,8.43,0,4,4,0,0,1-.3,1.5,8.47,8.47,0,1,1-10.51,8.25,8.34,8.34,0,0,1,3.63-6.85A4,4,0,0,1,381.85,39.94Zm-24,18.18a8.41,8.41,0,0,1-1.81-16.68,4,4,0,0,1-.29-1.5,4.22,4.22,0,0,1,8.43,0,4,4,0,0,1-1.25,2.9,8.36,8.36,0,0,1,3.62,6.85A8.57,8.57,0,0,1,357.87,58.12Zm6.37,1h17.39v4.09H364.24Z" transform="translate(0 -6.47)"/><path class="cls-16" d="M405.42,38.15c0,19.75-16.51,35.77-36.88,35.77a37.46,37.46,0,0,1-20-5.74A35.18,35.18,0,0,0,373,78c19.18,0,34.78-15.12,34.78-33.72a32.72,32.72,0,0,0-1.32-9.22,12,12,0,0,1-1.15.53C405.39,36.43,405.42,37.29,405.42,38.15Z" transform="translate(0 -6.47)"/><path class="cls-17" d="M376.38,14.51a37.61,37.61,0,0,1,17.74,3.7l.35-.46A35.31,35.31,0,0,0,373,10.56c-19.17,0-34.77,15.12-34.77,33.72a32.69,32.69,0,0,0,4,15.62,34.85,34.85,0,0,1-1.34-8.35C340.13,31.81,356,15.22,376.38,14.51Z" transform="translate(0 -6.47)"/><path class="cls-18" d="M363,42.84A4.29,4.29,0,0,1,360,44a4.22,4.22,0,0,1-3.92-2.58,8.47,8.47,0,1,0,10.51,8.25A8.36,8.36,0,0,0,363,42.84Z" transform="translate(0 -6.47)"/><path class="cls-18" d="M379.47,49.69A8.7,8.7,0,1,0,390,41.44,4.22,4.22,0,0,1,386.06,44a4.27,4.27,0,0,1-3-1.18A8.34,8.34,0,0,0,379.47,49.69Z" transform="translate(0 -6.47)"/><path class="cls-9" d="M360,44a4.29,4.29,0,0,0,3-1.18,4,4,0,0,0,1.25-2.9,4.22,4.22,0,0,0-8.43,0,4,4,0,0,0,.29,1.5A4.22,4.22,0,0,0,360,44Z" transform="translate(0 -6.47)"/><path class="cls-9" d="M390,41.44a4,4,0,0,0,.3-1.5,4.22,4.22,0,0,0-8.43,0,4,4,0,0,0,1.25,2.9,4.27,4.27,0,0,0,3,1.18A4.22,4.22,0,0,0,390,41.44Z" transform="translate(0 -6.47)"/><rect class="cls-9" x="364.24" y="52.63" width="17.39" height="4.09"/><path class="cls-19" d="M394.82,25.92a6.52,6.52,0,0,0,13,0c0-2.22-3.45-6.56-6.52-9.67C398.27,19.36,394.82,23.7,394.82,25.92Z" transform="translate(0 -6.47)"/><path class="cls-9" d="M412.08,25.92c0-2.43-1.57-5.48-4.79-9.3a59.77,59.77,0,0,0-4.5-4.74l-1.45-1.33-1.45,1.33c-.06.06-1.24,1.14-2.72,2.74A39.56,39.56,0,0,0,373,6.47c-21.5,0-39,17-39,37.81s17.49,37.81,39,37.81,39-17,39-37.81A36.54,36.54,0,0,0,410,32.14,10.15,10.15,0,0,0,412.08,25.92ZM407.8,44.28C407.8,62.88,392.2,78,373,78a35.18,35.18,0,0,1-24.5-9.82,33.71,33.71,0,0,1-6.31-8.28,32.69,32.69,0,0,1-4-15.62c0-18.6,15.6-33.72,34.77-33.72a35.31,35.31,0,0,1,21.45,7.19l-.35.46c-2.36,3.09-3.52,5.62-3.52,7.71a10.59,10.59,0,0,0,10.74,10.41,11,11,0,0,0,4-.74,12,12,0,0,0,1.15-.53A32.72,32.72,0,0,1,407.8,44.28Zm-6.46-12a6.44,6.44,0,0,1-6.52-6.33c0-2.22,3.45-6.56,6.52-9.67,3.07,3.11,6.52,7.45,6.52,9.67A6.43,6.43,0,0,1,401.34,32.25Z" transform="translate(0 -6.47)"/><path class="cls-20" d="M38.32,135.29h4.61v25.56H38.32Zm2.13,11.23h6.4a2.32,2.32,0,0,0,1.24-.33,2.25,2.25,0,0,0,.82-.93,3.06,3.06,0,0,0,.29-1.39v-1.46a3.41,3.41,0,0,0-.28-1.43,2.1,2.1,0,0,0-.82-.94,2.23,2.23,0,0,0-1.25-.34h-6.4v-4.41h6.41a7.91,7.91,0,0,1,3.74.83,5.86,5.86,0,0,1,2.46,2.37,7.29,7.29,0,0,1,.87,3.64v2.05a7.12,7.12,0,0,1-.87,3.59,5.84,5.84,0,0,1-2.47,2.35,8.16,8.16,0,0,1-3.73.81H40.45Z" transform="translate(0 -6.47)"/><path class="cls-20" d="M62,155.06a1.28,1.28,0,0,0,.35,1,1.35,1.35,0,0,0,1,.34H64v4.48H62a4.39,4.39,0,0,1-3.36-1.27A5,5,0,0,1,57.43,156V135.29H62Z" transform="translate(0 -6.47)"/><path class="cls-20" d="M69.65,160.29a5.56,5.56,0,0,1-2.43-2.37,7.84,7.84,0,0,1-.84-3.77V149.6a8.79,8.79,0,0,1,.81-3.94,5.72,5.72,0,0,1,2.35-2.49,7.51,7.51,0,0,1,3.71-.85,6.67,6.67,0,0,1,3.63.94A5.93,5.93,0,0,1,79.16,146a10.82,10.82,0,0,1,.79,4.36v3.11H69.68v-3.21h6l0-1.27a2.52,2.52,0,0,0-.66-1.87,2.55,2.55,0,0,0-3.6.09,3.23,3.23,0,0,0-.68,2.18v4.87a2.91,2.91,0,0,0,.69,2.07,3,3,0,0,0,3.57.25,2.67,2.67,0,0,0,.94-1.4l3.84,1.54A5.51,5.51,0,0,1,77.56,160a7,7,0,0,1-4.08,1.11A8.24,8.24,0,0,1,69.65,160.29Z" transform="translate(0 -6.47)"/><path class="cls-20" d="M84.32,159.75a5.84,5.84,0,0,1-1.26-4.09,5.45,5.45,0,0,1,1.59-4.25A6.76,6.76,0,0,1,89.33,150h3l.24,3.57H89.46a2.2,2.2,0,0,0-1.62.54,2.15,2.15,0,0,0-.55,1.58,1.56,1.56,0,0,0,.52,1.28,2.53,2.53,0,0,0,1.56.41,4,4,0,0,0,2.15-.47,1.53,1.53,0,0,0,.73-1.39l.34,2.11a3.31,3.31,0,0,1-.67,1.91,3.82,3.82,0,0,1-1.61,1.2,5.8,5.8,0,0,1-2.21.4A4.92,4.92,0,0,1,84.32,159.75Zm7.93-11.19a2,2,0,0,0-.62-1.56,2.61,2.61,0,0,0-1.79-.55,3,3,0,0,0-1.49.37,2.89,2.89,0,0,0-1.09,1l-3.57-1.53a5.17,5.17,0,0,1,2.21-2.94,7.23,7.23,0,0,1,4-1.05,8.2,8.2,0,0,1,3.57.71,5.06,5.06,0,0,1,2.26,2.1,6.73,6.73,0,0,1,.78,3.34v12.38H92.25Z" transform="translate(0 -6.47)"/><path class="cls-20" d="M103,160.6a6.45,6.45,0,0,1-2.44-1.48,5.76,5.76,0,0,1-1.42-2.35l3.69-2.06a4.13,4.13,0,0,0,3.74,2.22,3.2,3.2,0,0,0,1.74-.41,1.27,1.27,0,0,0,.62-1.09,1.24,1.24,0,0,0-.37-1,2.41,2.41,0,0,0-.94-.55,15.38,15.38,0,0,0-1.61-.42,3.73,3.73,0,0,1-.46-.09l-.47-.1a.43.43,0,0,0-.13-.05l-.13,0a13.85,13.85,0,0,1-2.6-.86,4.15,4.15,0,0,1-1.74-1.57,5.13,5.13,0,0,1-.71-2.86,5.62,5.62,0,0,1,.78-3,5.1,5.1,0,0,1,2.25-1.94,8.06,8.06,0,0,1,3.42-.68,8.6,8.6,0,0,1,3,.49,6.19,6.19,0,0,1,2.26,1.43,5.56,5.56,0,0,1,1.34,2.23l-3.64,1.95a3.89,3.89,0,0,0-1.27-1.42,3.06,3.06,0,0,0-1.75-.53,2.9,2.9,0,0,0-1.62.39,1.17,1.17,0,0,0-.58,1,1.11,1.11,0,0,0,.42.9,2.74,2.74,0,0,0,1,.53c.4.12,1,.25,1.69.39l.17,0,.15,0s0,0,.07,0l.07,0a16.05,16.05,0,0,1,2.87.8,4.16,4.16,0,0,1,1.89,1.56,5.53,5.53,0,0,1,.78,3.18,5.63,5.63,0,0,1-.81,3.06,5.3,5.3,0,0,1-2.36,2,8.69,8.69,0,0,1-3.64.7A9.84,9.84,0,0,1,103,160.6Z" transform="translate(0 -6.47)"/><path class="cls-20" d="M119.4,160.29a5.56,5.56,0,0,1-2.43-2.37,7.72,7.72,0,0,1-.85-3.77V149.6a8.65,8.65,0,0,1,.82-3.94,5.67,5.67,0,0,1,2.35-2.49,7.48,7.48,0,0,1,3.71-.85,6.72,6.72,0,0,1,3.63.94,5.93,5.93,0,0,1,2.28,2.75,11,11,0,0,1,.78,4.36v3.11H119.43v-3.21h6V149a2.52,2.52,0,0,0-.66-1.87,2.56,2.56,0,0,0-3.61.09,3.23,3.23,0,0,0-.67,2.18v4.87a2.9,2.9,0,0,0,.68,2.07,3,3,0,0,0,3.58.25,2.67,2.67,0,0,0,.94-1.4l3.83,1.54a5.54,5.54,0,0,1-2.17,3.27,7,7,0,0,1-4.09,1.11A8.22,8.22,0,0,1,119.4,160.29Z" transform="translate(0 -6.47)"/><path class="cls-20" d="M150.87,142.6h4.56l-5.87,18.25h-3.38l-5.89-18.25h4.54l3,11.74Z" transform="translate(0 -6.47)"/><path class="cls-20" d="M157.66,135.29h4.59v4.59h-4.59Zm0,7.31h4.59v18.25h-4.59Z" transform="translate(0 -6.47)"/><path class="cls-20" d="M168.44,160.6a6.49,6.49,0,0,1-2.43-1.48,5.65,5.65,0,0,1-1.42-2.35l3.69-2.06a4.2,4.2,0,0,0,1.54,1.64,4.28,4.28,0,0,0,2.2.58,3.14,3.14,0,0,0,1.73-.41,1.33,1.33,0,0,0,.26-2.05,2.49,2.49,0,0,0-.94-.55,15.38,15.38,0,0,0-1.61-.42l-.47-.09-.46-.1a.39.39,0,0,0-.14-.05l-.13,0a14.11,14.11,0,0,1-2.6-.86,4.27,4.27,0,0,1-1.74-1.57,5.13,5.13,0,0,1-.7-2.86,5.62,5.62,0,0,1,.78-3,5.07,5.07,0,0,1,2.24-1.94,8.1,8.1,0,0,1,3.43-.68,8.58,8.58,0,0,1,3,.49,6,6,0,0,1,2.26,1.43,5.47,5.47,0,0,1,1.35,2.23l-3.64,1.95a4,4,0,0,0-1.27-1.42,3.11,3.11,0,0,0-1.75-.53,2.87,2.87,0,0,0-1.62.39,1.15,1.15,0,0,0-.58,1,1.13,1.13,0,0,0,.41.9,2.9,2.9,0,0,0,1,.53c.41.12,1,.25,1.7.39l.16,0,.15,0a.08.08,0,0,0,.07,0,.15.15,0,0,1,.08,0,16.3,16.3,0,0,1,2.87.8,4.26,4.26,0,0,1,1.89,1.56,6.55,6.55,0,0,1,0,6.24,5.28,5.28,0,0,1-2.35,2,8.72,8.72,0,0,1-3.64.7A9.94,9.94,0,0,1,168.44,160.6Z" transform="translate(0 -6.47)"/><path class="cls-20" d="M181.71,135.29h4.58v4.59h-4.58Zm0,7.31h4.58v18.25h-4.58Z" transform="translate(0 -6.47)"/><path class="cls-20" d="M188.72,142.6h8.61v4.06h-8.61Zm2.88,17.11a5.14,5.14,0,0,1-1.12-3.61V137.29h4.57v17.85a1.51,1.51,0,0,0,.28,1,1,1,0,0,0,.79.35h1.21v4.47h-2.18A4.6,4.6,0,0,1,191.6,159.71Z" transform="translate(0 -6.47)"/><path class="cls-20" d="M213.86,154.89a2.08,2.08,0,0,0,.54,1.56A2.13,2.13,0,0,0,216,157a2,2,0,0,0,1.53-.55,2.22,2.22,0,0,0,.54-1.61l.25,2.92a5.42,5.42,0,0,1-1.49,2.46,3.54,3.54,0,0,1-2.47.91,4.56,4.56,0,0,1-3.75-1.57,7,7,0,0,1-1.29-4.56V142.6h4.57ZM218,142.6h4.57v18.25H218Z" transform="translate(0 -6.47)"/><path class="cls-20" d="M229.11,160.6a6.45,6.45,0,0,1-2.44-1.48,5.65,5.65,0,0,1-1.42-2.35l3.69-2.06a4.13,4.13,0,0,0,3.74,2.22,3.14,3.14,0,0,0,1.73-.41,1.26,1.26,0,0,0,.63-1.09,1.24,1.24,0,0,0-.37-1,2.49,2.49,0,0,0-.94-.55,15.38,15.38,0,0,0-1.61-.42l-.47-.09-.46-.1a.43.43,0,0,0-.13-.05l-.14,0a14.11,14.11,0,0,1-2.6-.86,4.27,4.27,0,0,1-1.74-1.57,5.13,5.13,0,0,1-.7-2.86,5.62,5.62,0,0,1,.78-3A5.07,5.07,0,0,1,228.9,143a8.14,8.14,0,0,1,3.43-.68,8.64,8.64,0,0,1,3,.49,6.19,6.19,0,0,1,2.26,1.43,5.56,5.56,0,0,1,1.34,2.23l-3.64,1.95A4,4,0,0,0,234,147a3.08,3.08,0,0,0-1.75-.53,2.9,2.9,0,0,0-1.62.39,1.15,1.15,0,0,0-.58,1,1.13,1.13,0,0,0,.41.9,2.9,2.9,0,0,0,1,.53c.41.12,1,.25,1.7.39l.17,0,.15,0s0,0,.07,0l.07,0a16.05,16.05,0,0,1,2.87.8,4.16,4.16,0,0,1,1.89,1.56,5.54,5.54,0,0,1,.77,3.18,5.72,5.72,0,0,1-.8,3.06,5.3,5.3,0,0,1-2.36,2,8.69,8.69,0,0,1-3.64.7A9.84,9.84,0,0,1,229.11,160.6Z" transform="translate(0 -6.47)"/><path class="cls-20" d="M242.37,135.29H247v4.59h-4.59Zm0,7.31H247v18.25h-4.59Z" transform="translate(0 -6.47)"/><path class="cls-20" d="M250.79,142.6h4.62v18.25h-4.62Zm8.93,6.31a2.43,2.43,0,0,0-.56-1.71,2.11,2.11,0,0,0-1.64-.61,2,2,0,0,0-1.57.61,2.51,2.51,0,0,0-.54,1.73l-.37-3.15a6.38,6.38,0,0,1,1.8-2.58,4.06,4.06,0,0,1,2.61-.88,4.35,4.35,0,0,1,3.6,1.59,7,7,0,0,1,1.27,4.49v12.45h-4.6Z" transform="translate(0 -6.47)"/><path class="cls-20" d="M270.26,160.36a4.85,4.85,0,0,1-1.67-2.22,9.19,9.19,0,0,1-.59-3.5v-5.8a9.73,9.73,0,0,1,.57-3.52,4.65,4.65,0,0,1,1.68-2.23,4.55,4.55,0,0,1,2.65-.77,3.89,3.89,0,0,1,2.45.87,6,6,0,0,1,1.79,2.44l-.37,3.23a2.83,2.83,0,0,0-.25-1.28,1.86,1.86,0,0,0-.7-.79,2.24,2.24,0,0,0-1.14-.27,1.93,1.93,0,0,0-1.57.7,3,3,0,0,0-.58,1.94v5.18a2.83,2.83,0,0,0,.57,1.88,2,2,0,0,0,1.58.67,2.46,2.46,0,0,0,1.14-.24,1.67,1.67,0,0,0,.7-.76,2.73,2.73,0,0,0,.25-1.23L277,158a4.5,4.5,0,0,1-1.55,2.32,4,4,0,0,1-2.52.83A4.52,4.52,0,0,1,270.26,160.36Zm-.07,6.73a5.35,5.35,0,0,1-1.93-3.46l4.43-1.48a2.49,2.49,0,0,0,.75,1.38,2,2,0,0,0,1.32.46,1.86,1.86,0,0,0,1.45-.59,2.25,2.25,0,0,0,.56-1.59V142.6h4.62v19a7.38,7.38,0,0,1-.82,3.61,5.49,5.49,0,0,1-2.42,2.27,8.44,8.44,0,0,1-3.81.79A6.69,6.69,0,0,1,270.19,167.09Z" transform="translate(0 -6.47)"/><path class="cls-20" d="M294.12,135.29h4.6v25.56h-4.6Zm2.64,21.15h4.78a3.53,3.53,0,0,0,2.54-.87,3.14,3.14,0,0,0,.9-2.39V143a3.16,3.16,0,0,0-.9-2.39,3.57,3.57,0,0,0-2.54-.86h-4.78v-4.41h4.93a9.76,9.76,0,0,1,4.34.89,6.18,6.18,0,0,1,2.74,2.56,8.19,8.19,0,0,1,.94,4.07v10.51a8.22,8.22,0,0,1-.92,4,6.32,6.32,0,0,1-2.74,2.62,9.57,9.57,0,0,1-4.37.92h-4.92Z" transform="translate(0 -6.47)"/><path class="cls-20" d="M316.57,160.29a5.56,5.56,0,0,1-2.43-2.37,7.84,7.84,0,0,1-.84-3.77V149.6a8.79,8.79,0,0,1,.81-3.94,5.72,5.72,0,0,1,2.35-2.49,7.51,7.51,0,0,1,3.71-.85,6.67,6.67,0,0,1,3.63.94,5.93,5.93,0,0,1,2.28,2.75,10.82,10.82,0,0,1,.79,4.36v3.11H316.6v-3.21h6l0-1.27a2.52,2.52,0,0,0-.66-1.87,2.55,2.55,0,0,0-3.6.09,3.23,3.23,0,0,0-.68,2.18v4.87a2.91,2.91,0,0,0,.69,2.07,3,3,0,0,0,3.57.25,2.67,2.67,0,0,0,.94-1.4l3.84,1.54a5.51,5.51,0,0,1-2.18,3.27,7,7,0,0,1-4.08,1.11A8.24,8.24,0,0,1,316.57,160.29Z" transform="translate(0 -6.47)"/><path class="cls-20" d="M332.92,160.6a6.41,6.41,0,0,1-2.43-1.48,5.78,5.78,0,0,1-1.43-2.35l3.7-2.06a4.2,4.2,0,0,0,1.54,1.64,4.28,4.28,0,0,0,2.2.58,3.16,3.16,0,0,0,1.73-.41,1.25,1.25,0,0,0,.62-1.09,1.27,1.27,0,0,0-.36-1,2.49,2.49,0,0,0-.94-.55,16.09,16.09,0,0,0-1.61-.42,3.89,3.89,0,0,1-.47-.09l-.46-.1a.48.48,0,0,0-.14-.05l-.13,0a14.11,14.11,0,0,1-2.6-.86,4.27,4.27,0,0,1-1.74-1.57,5.13,5.13,0,0,1-.7-2.86,5.62,5.62,0,0,1,.78-3,5.07,5.07,0,0,1,2.24-1.94,8.1,8.1,0,0,1,3.43-.68,8.58,8.58,0,0,1,3,.49,6.11,6.11,0,0,1,2.26,1.43,5.47,5.47,0,0,1,1.35,2.23l-3.64,1.95a3.91,3.91,0,0,0-1.28-1.42,3.06,3.06,0,0,0-1.75-.53,2.84,2.84,0,0,0-1.61.39,1.15,1.15,0,0,0-.58,1,1.13,1.13,0,0,0,.41.9,2.9,2.9,0,0,0,1,.53c.4.12,1,.25,1.7.39l.16,0,.15,0s0,0,.07,0a.1.1,0,0,1,.07,0,16.19,16.19,0,0,1,2.88.8,4.26,4.26,0,0,1,1.89,1.56,6.55,6.55,0,0,1,0,6.24,5.28,5.28,0,0,1-2.35,2,8.72,8.72,0,0,1-3.64.7A9.94,9.94,0,0,1,332.92,160.6Z" transform="translate(0 -6.47)"/><path class="cls-20" d="M346.48,135.29h4.57v25.56h-4.57ZM349,153.57l7.07-11h4.76l-11.39,16.65Zm3.41-2,3.36-2.64,5.87,11.94h-5.11Z" transform="translate(0 -6.47)"/><path class="cls-20" d="M361.92,142.6h8.61v4.06h-8.61Zm2.88,17.11a5.14,5.14,0,0,1-1.13-3.61V137.29h4.58v17.85a1.51,1.51,0,0,0,.28,1,1,1,0,0,0,.79.35h1.21v4.47h-2.18A4.59,4.59,0,0,1,364.8,159.71Z" transform="translate(0 -6.47)"/><path class="cls-20" d="M376.6,160.35a5.27,5.27,0,0,1-2.29-2.24,7.26,7.26,0,0,1-.79-3.52v-5.85a7.09,7.09,0,0,1,.79-3.47,5.18,5.18,0,0,1,2.29-2.2,9.21,9.21,0,0,1,7.28,0,5.13,5.13,0,0,1,2.29,2.2,7.09,7.09,0,0,1,.8,3.47v5.9a7.14,7.14,0,0,1-.8,3.49,5.23,5.23,0,0,1-2.29,2.22,9.1,9.1,0,0,1-7.28,0Zm5.23-4.15a2.44,2.44,0,0,0,.57-1.73v-5.56a2.39,2.39,0,0,0-.57-1.71,2.06,2.06,0,0,0-1.61-.61,2,2,0,0,0-1.56.61,2.39,2.39,0,0,0-.57,1.71v5.56a2.48,2.48,0,0,0,.56,1.73,2.06,2.06,0,0,0,1.57.61A2.09,2.09,0,0,0,381.83,156.2Z" transform="translate(0 -6.47)"/><path class="cls-20" d="M390.73,142.6h4.6v25.67h-4.6Zm5.91,17.69a4.81,4.81,0,0,1-1.55-2.31l.24-3.39a3,3,0,0,0,.25,1.26,1.76,1.76,0,0,0,.71.79,2.22,2.22,0,0,0,1.13.27,1.89,1.89,0,0,0,1.58-.7,3.12,3.12,0,0,0,.55-2v-5.06a3,3,0,0,0-.55-2,1.9,1.9,0,0,0-1.58-.71,2.22,2.22,0,0,0-1.13.27,1.79,1.79,0,0,0-.71.8,2.93,2.93,0,0,0-.25,1.25l-.37-3.18a6.08,6.08,0,0,1,1.77-2.47,3.82,3.82,0,0,1,2.44-.87,4.55,4.55,0,0,1,2.65.77,4.79,4.79,0,0,1,1.7,2.24,9.56,9.56,0,0,1,.58,3.53v5.7a9.65,9.65,0,0,1-.58,3.54,4.84,4.84,0,0,1-1.71,2.25,4.64,4.64,0,0,1-2.7.76A3.87,3.87,0,0,1,396.64,160.29Z" transform="translate(0 -6.47)"/><path class="cls-20" d="M409.87,165.7h-4.34l8.52-33.43h4.36Z" transform="translate(0 -6.47)"/><path class="cls-20" d="M419.7,135.29h4.6v25.56h-4.6Zm2,21.15h12.2v4.41h-12.2Z" transform="translate(0 -6.47)"/><path class="cls-20" d="M437.36,159.75a5.84,5.84,0,0,1-1.26-4.09,5.45,5.45,0,0,1,1.59-4.25,6.76,6.76,0,0,1,4.68-1.44h3l.24,3.57H442.5a2.2,2.2,0,0,0-1.62.54,2.11,2.11,0,0,0-.55,1.58,1.56,1.56,0,0,0,.52,1.28,2.53,2.53,0,0,0,1.56.41,4,4,0,0,0,2.15-.47,1.53,1.53,0,0,0,.73-1.39l.33,2.11a3.24,3.24,0,0,1-.66,1.91,3.82,3.82,0,0,1-1.61,1.2,5.8,5.8,0,0,1-2.21.4A4.92,4.92,0,0,1,437.36,159.75Zm7.93-11.19a2,2,0,0,0-.62-1.56,2.61,2.61,0,0,0-1.79-.55,3,3,0,0,0-1.49.37,2.89,2.89,0,0,0-1.09,1l-3.57-1.53a5.17,5.17,0,0,1,2.21-2.94,7.23,7.23,0,0,1,4-1.05,8.2,8.2,0,0,1,3.57.71,5.06,5.06,0,0,1,2.26,2.1,6.73,6.73,0,0,1,.78,3.34v12.38h-4.27Z" transform="translate(0 -6.47)"/><path class="cls-20" d="M453.69,142.6h4.61v25.67h-4.61Zm5.92,17.69a4.75,4.75,0,0,1-1.56-2.31l.25-3.39a3,3,0,0,0,.24,1.26,1.84,1.84,0,0,0,.72.79,2.2,2.2,0,0,0,1.13.27,1.87,1.87,0,0,0,1.57-.7,3.12,3.12,0,0,0,.56-2v-5.06a3,3,0,0,0-.56-2,1.88,1.88,0,0,0-1.57-.71,2.2,2.2,0,0,0-1.13.27,1.87,1.87,0,0,0-.72.8,2.93,2.93,0,0,0-.24,1.25l-.37-3.18a5.9,5.9,0,0,1,1.77-2.47,3.81,3.81,0,0,1,2.43-.87,4.53,4.53,0,0,1,2.65.77,4.73,4.73,0,0,1,1.7,2.24,9.55,9.55,0,0,1,.59,3.53v5.7a9.65,9.65,0,0,1-.59,3.54,4.76,4.76,0,0,1-1.7,2.25,4.68,4.68,0,0,1-2.7.76A3.85,3.85,0,0,1,459.61,160.29Z" transform="translate(0 -6.47)"/><path class="cls-20" d="M469.42,142.6H478v4.06h-8.62Zm2.89,17.11a5.14,5.14,0,0,1-1.13-3.61V137.29h4.57v17.85a1.57,1.57,0,0,0,.28,1,1,1,0,0,0,.8.35H478v4.47h-2.18A4.59,4.59,0,0,1,472.31,159.71Z" transform="translate(0 -6.47)"/><path class="cls-20" d="M484.11,160.35a5.22,5.22,0,0,1-2.29-2.24,7.26,7.26,0,0,1-.79-3.52v-5.85a7.09,7.09,0,0,1,.79-3.47,5.13,5.13,0,0,1,2.29-2.2,9.21,9.21,0,0,1,7.28,0,5.13,5.13,0,0,1,2.29,2.2,7.09,7.09,0,0,1,.79,3.47v5.9a7.14,7.14,0,0,1-.79,3.49,5.23,5.23,0,0,1-2.29,2.22,9.1,9.1,0,0,1-7.28,0Zm5.23-4.15a2.44,2.44,0,0,0,.56-1.73v-5.56a2.38,2.38,0,0,0-.56-1.71,2.07,2.07,0,0,0-1.62-.61,2,2,0,0,0-1.55.61,2.39,2.39,0,0,0-.57,1.71v5.56a2.44,2.44,0,0,0,.56,1.73,2,2,0,0,0,1.56.61A2.1,2.1,0,0,0,489.34,156.2Z" transform="translate(0 -6.47)"/><path class="cls-20" d="M498.24,142.6h4.6v25.67h-4.6Zm5.91,17.69a4.75,4.75,0,0,1-1.56-2.31l.25-3.39a2.86,2.86,0,0,0,.25,1.26,1.76,1.76,0,0,0,.71.79,2.22,2.22,0,0,0,1.13.27,1.89,1.89,0,0,0,1.58-.7,3.12,3.12,0,0,0,.55-2v-5.06a3,3,0,0,0-.55-2,1.9,1.9,0,0,0-1.58-.71,2.22,2.22,0,0,0-1.13.27,1.79,1.79,0,0,0-.71.8,2.79,2.79,0,0,0-.25,1.25l-.37-3.18a6.08,6.08,0,0,1,1.77-2.47,3.81,3.81,0,0,1,2.43-.87,4.58,4.58,0,0,1,2.66.77,4.71,4.71,0,0,1,1.69,2.24,9.35,9.35,0,0,1,.59,3.53v5.7a9.44,9.44,0,0,1-.59,3.54,4.76,4.76,0,0,1-1.7,2.25,4.68,4.68,0,0,1-2.7.76A3.87,3.87,0,0,1,504.15,160.29Z" transform="translate(0 -6.47)"/></g></g></svg>