<svg xmlns="http://www.w3.org/2000/svg" xmlns:xlink="http://www.w3.org/1999/xlink" viewBox="0 0 665.49 154.34"><defs><style>.cls-1{fill:#f99e26;}.cls-2{fill:#feda46;}.cls-3{fill:#ef465e;}.cls-4{fill:#b41e46;}.cls-5{fill:url(#linear-gradient);}</style><linearGradient id="linear-gradient" x1="244.27" y1="106.5" x2="665.49" y2="106.5" gradientUnits="userSpaceOnUse"><stop offset="0" stop-color="#feda46"/><stop offset="0.06" stop-color="#fed22e"/><stop offset="0.13" stop-color="#fdcc1b"/><stop offset="0.2" stop-color="#fdc810"/><stop offset="0.28" stop-color="#fdc70c"/><stop offset="0.59" stop-color="#f4953d"/><stop offset="0.68" stop-color="#f3903f"/><stop offset="0.81" stop-color="#ed683c"/><stop offset="1" stop-color="#e93e3a"/></linearGradient></defs><g id="Layer_2" data-name="Layer 2"><g id="Layer_1-2" data-name="Layer 1"><path class="cls-1" d="M201.58,100.79v11.65H215v11.65h13.44v-23.3Z" transform="translate(0 -29.33)"/><path class="cls-1" d="M161.27,100.79h26.87v11.65H161.27Z" transform="translate(0 -29.33)"/><path class="cls-1" d="M121,100.79h26.88v11.65H121Z" transform="translate(0 -29.33)"/><path class="cls-2" d="M80.63,100.79h26.88v11.65H80.63Z" transform="translate(0 -29.33)"/><path class="cls-2" d="M40.32,100.79H67.19v11.65H40.32Z" transform="translate(0 -29.33)"/><path class="cls-2" d="M0,102.73v21.36H13.44V112.44H26.88V100.79H0Z" transform="translate(0 -29.33)"/><path class="cls-1" d="M215,170.7H201.58v11.65h26.88v-23.3H215Z" transform="translate(0 -29.33)"/><path class="cls-2" d="M13.44,159.05H0v23.3H26.88V170.7H13.44Z" transform="translate(0 -29.33)"/><path class="cls-1" d="M161.27,170.7h26.87v11.65H161.27Z" transform="translate(0 -29.33)"/><path class="cls-1" d="M121,170.7h26.88v11.65H121Z" transform="translate(0 -29.33)"/><path class="cls-2" d="M80.63,170.7h26.88v11.65H80.63Z" transform="translate(0 -29.33)"/><path class="cls-2" d="M40.32,170.7H67.19v11.65H40.32Z" transform="translate(0 -29.33)"/><path class="cls-2" d="M0,135.75H13.44V147.4H0Z" transform="translate(0 -29.33)"/><path class="cls-1" d="M215,135.75h13.44V147.4H215Z" transform="translate(0 -29.33)"/><path class="cls-2" d="M64.07,125.8,54.57,134l-9.5-8.24L35.57,134l9.5,8.24-9.5,8.24,9.5,8.23,9.5-8.23,9.5,8.23,9.51-8.23-9.51-8.24L73.58,134Z" transform="translate(0 -29.33)"/><path class="cls-1" d="M124,142.28l9.5,8.23-9.5,8.25-9.5-8.25V134l9.5-8.24,9.5,8.24Z" transform="translate(0 -29.33)"/><path class="cls-2" d="M114.54,134v16.47L105,158.76l-9.5-8.25,9.5-8.23L95.53,134l9.5-8.24Z" transform="translate(0 -29.33)"/><path class="cls-1" d="M192.9,134l-9.51-8.24-9.5,8.24-9.5-8.24-9.5,8.24,9.5,8.24-9.5,8.24,9.5,8.23,9.5-8.23,9.5,8.23,9.51-8.23-9.51-8.24Z" transform="translate(0 -29.33)"/><path class="cls-3" d="M24.36,89.14H22.68C10.17,89.14,0,80.32,0,69.48V50.55C0,39.71,10.17,30.89,22.68,30.89h1.68C36.86,30.89,47,39.71,47,50.55v3.64H33.6V50.55c0-4.42-4.15-8-9.24-8H22.68c-5.1,0-9.24,3.59-9.24,8V69.48c0,4.42,4.14,8,9.24,8h1.68c5.09,0,9.24-3.59,9.24-8V65.84H47v3.64C47,80.32,36.86,89.14,24.36,89.14Z" transform="translate(0 -29.33)"/><path class="cls-3" d="M84.83,89.14H83.15c-12.5,0-22.67-8.82-22.67-19.66V50.55c0-10.84,10.17-19.66,22.67-19.66h1.68c12.51,0,22.68,8.82,22.68,19.66V69.48C107.51,80.32,97.34,89.14,84.83,89.14Zm-1.68-46.6c-5.09,0-9.24,3.59-9.24,8V69.48c0,4.42,4.15,8,9.24,8h1.68c5.1,0,9.24-3.59,9.24-8V50.55c0-4.42-4.14-8-9.24-8Z" transform="translate(0 -29.33)"/><path class="cls-4" d="M145.31,89.14H121V30.89h24.36c12.5,0,22.68,8.82,22.68,19.66V69.48C168,80.32,157.81,89.14,145.31,89.14ZM134.39,77.49h10.92c5.09,0,9.24-3.59,9.24-8V50.55c0-4.42-4.15-8-9.24-8H134.39Z" transform="translate(0 -29.33)"/><path class="cls-4" d="M228.46,42.54V30.89h-47V89.14h47V77.49h-33.6V65.84H219.5V54.19H194.86V42.54Z" transform="translate(0 -29.33)"/><path d="M260.81,179.09a30.19,30.19,0,0,1-12.27-13.2q-4.28-8.64-4.27-20.81V68q0-12.27,4.27-20.91a30.19,30.19,0,0,1,12.27-13.2q8-4.59,19.24-4.58t19.34,4.52a29.56,29.56,0,0,1,12.23,13.26q4.2,8.74,4.21,20.91v9.25H292.74V68a23.16,23.16,0,0,0-1.46-8.63A11.46,11.46,0,0,0,287,53.87,12.45,12.45,0,0,0,280.05,52a12,12,0,0,0-6.76,1.87,12.22,12.22,0,0,0-4.37,5.46A21.77,21.77,0,0,0,267.36,68v77.06a21.39,21.39,0,0,0,1.56,8.64,12.24,12.24,0,0,0,4.37,5.41,12,12,0,0,0,18-5.52,22.66,22.66,0,0,0,1.46-8.63v-9.26h23.09V145q-.1,12.17-4.27,20.91a29.16,29.16,0,0,1-12.22,13.26q-8.05,4.51-19.29,4.52T260.81,179.09Z" transform="translate(0 -29.33)"/><path d="M346.87,180.08A25.13,25.13,0,0,1,336,169.68a33.17,33.17,0,0,1-3.79-16.38V102.13q0-9.47,3.79-16.17a24.67,24.67,0,0,1,10.92-10.19Q354,72.28,364,72.28t17.11,3.49A24.12,24.12,0,0,1,391.91,86a33.08,33.08,0,0,1,3.69,16.17v51.48a33.43,33.43,0,0,1-3.69,16.23,24.28,24.28,0,0,1-10.82,10.29A38.09,38.09,0,0,1,364,183.67,37.69,37.69,0,0,1,346.87,180.08Zm23.71-20.28q2.35-2.66,2.35-7.75V103.59q0-4.78-2.35-7.44a8.44,8.44,0,0,0-6.7-2.65,8.54,8.54,0,0,0-6.61,2.65q-2.44,2.66-2.44,7.44v48.46q0,5,2.39,7.7a9.68,9.68,0,0,0,13.36.05Z" transform="translate(0 -29.33)"/><path d="M437.93,151.43a9.57,9.57,0,0,0,1.92,6.4,6.8,6.8,0,0,0,5.46,2.23h4.58v22.05h-8.95q-12.27,0-19.08-7.49t-6.81-21.11V30.89h22.88Z" transform="translate(0 -29.33)"/><path d="M487.12,151.43a9.52,9.52,0,0,0,1.93,6.4,6.8,6.8,0,0,0,5.46,2.23h4.57v22.05h-8.94q-12.27,0-19.09-7.49t-6.81-21.11V30.89h22.88Z" transform="translate(0 -29.33)"/><path d="M517.39,176q-6.56-7.69-6.56-22.88,0-17.78,8.79-26.83t25.74-9.05h11l1.45,19H546.09q-6.76,0-10.19,4.26t-3.43,12.58c0,3.68.86,6.44,2.6,8.27s4.29,2.76,7.69,2.76q6.35,0,9.68-3.54t3.32-10.4l2,9.47a33,33,0,0,1-2.55,13.2,17.27,17.27,0,0,1-7.12,8.12,22.79,22.79,0,0,1-11.55,2.7Q523.93,183.67,517.39,176Zm38.37-72.07q0-5.41-2.91-8.37t-8.21-3a8.74,8.74,0,0,0-7.08,3q-2.49,3-2.6,8.37H513q.11-15.08,8.47-23.35t23.56-8.27q10.31,0,17.58,3.69a25.52,25.52,0,0,1,11.13,10.82,35.59,35.59,0,0,1,3.85,17.11v78.21H555.76Z" transform="translate(0 -29.33)"/><path d="M599.24,30.89h22.88V182.11H599.24Zm29.48,147.89q-5.57-4.89-8.06-13.62l1.46-16a20,20,0,0,0,1.25,7.49,10.23,10.23,0,0,0,3.53,4.73,9.49,9.49,0,0,0,5.62,1.61,9,9,0,0,0,7.64-3.69q2.76-3.69,2.76-10.55v-42q0-6.55-2.76-10.14A9.06,9.06,0,0,0,632.52,93a10,10,0,0,0-5.62,1.51A9.6,9.6,0,0,0,623.37,99a18.88,18.88,0,0,0-1.25,7.28L619.94,92q3.42-9.36,9.35-14.56a19.47,19.47,0,0,1,13.11-5.2A20.78,20.78,0,0,1,654.88,76,22.87,22.87,0,0,1,662.78,87a49.2,49.2,0,0,1,2.71,17.37V151a49.79,49.79,0,0,1-2.81,17.68,23.37,23.37,0,0,1-8.16,11.18,21.68,21.68,0,0,1-12.85,3.8A19,19,0,0,1,628.72,178.78Z" transform="translate(0 -29.33)"/><path class="cls-5" d="M260.81,179.09a30.19,30.19,0,0,1-12.27-13.2q-4.28-8.64-4.27-20.81V68q0-12.27,4.27-20.91a30.19,30.19,0,0,1,12.27-13.2q8-4.59,19.24-4.58t19.34,4.52a29.56,29.56,0,0,1,12.23,13.26q4.2,8.74,4.21,20.91v9.25H292.74V68a23.16,23.16,0,0,0-1.46-8.63A11.46,11.46,0,0,0,287,53.87,12.45,12.45,0,0,0,280.05,52a12,12,0,0,0-6.76,1.87,12.22,12.22,0,0,0-4.37,5.46A21.77,21.77,0,0,0,267.36,68v77.06a21.39,21.39,0,0,0,1.56,8.64,12.24,12.24,0,0,0,4.37,5.41,12,12,0,0,0,18-5.52,22.66,22.66,0,0,0,1.46-8.63v-9.26h23.09V145q-.1,12.17-4.27,20.91a29.16,29.16,0,0,1-12.22,13.26q-8.05,4.51-19.29,4.52T260.81,179.09Z" transform="translate(0 -29.33)"/><path class="cls-5" d="M346.87,180.08A25.13,25.13,0,0,1,336,169.68a33.17,33.17,0,0,1-3.79-16.38V102.13q0-9.47,3.79-16.17a24.67,24.67,0,0,1,10.92-10.19Q354,72.28,364,72.28t17.11,3.49A24.12,24.12,0,0,1,391.91,86a33.08,33.08,0,0,1,3.69,16.17v51.48a33.43,33.43,0,0,1-3.69,16.23,24.28,24.28,0,0,1-10.82,10.29A38.09,38.09,0,0,1,364,183.67,37.69,37.69,0,0,1,346.87,180.08Zm23.71-20.28q2.35-2.66,2.35-7.75V103.59q0-4.78-2.35-7.44a8.44,8.44,0,0,0-6.7-2.65,8.54,8.54,0,0,0-6.61,2.65q-2.44,2.66-2.44,7.44v48.46q0,5,2.39,7.7a9.68,9.68,0,0,0,13.36.05Z" transform="translate(0 -29.33)"/><path class="cls-5" d="M437.93,151.43a9.57,9.57,0,0,0,1.92,6.4,6.8,6.8,0,0,0,5.46,2.23h4.58v22.05h-8.95q-12.27,0-19.08-7.49t-6.81-21.11V30.89h22.88Z" transform="translate(0 -29.33)"/><path class="cls-5" d="M487.12,151.43a9.52,9.52,0,0,0,1.93,6.4,6.8,6.8,0,0,0,5.46,2.23h4.57v22.05h-8.94q-12.27,0-19.09-7.49t-6.81-21.11V30.89h22.88Z" transform="translate(0 -29.33)"/><path class="cls-5" d="M517.39,176q-6.56-7.69-6.56-22.88,0-17.78,8.79-26.83t25.74-9.05h11l1.45,19H546.09q-6.76,0-10.19,4.26t-3.43,12.58c0,3.68.86,6.44,2.6,8.27s4.29,2.76,7.69,2.76q6.35,0,9.68-3.54t3.32-10.4l2,9.47a33,33,0,0,1-2.55,13.2,17.27,17.27,0,0,1-7.12,8.12,22.79,22.79,0,0,1-11.55,2.7Q523.93,183.67,517.39,176Zm38.37-72.07q0-5.41-2.91-8.37t-8.21-3a8.74,8.74,0,0,0-7.08,3q-2.49,3-2.6,8.37H513q.11-15.08,8.47-23.35t23.56-8.27q10.31,0,17.58,3.69a25.52,25.52,0,0,1,11.13,10.82,35.59,35.59,0,0,1,3.85,17.11v78.21H555.76Z" transform="translate(0 -29.33)"/><path class="cls-5" d="M599.24,30.89h22.88V182.11H599.24Zm29.48,147.89q-5.57-4.89-8.06-13.62l1.46-16a20,20,0,0,0,1.25,7.49,10.23,10.23,0,0,0,3.53,4.73,9.49,9.49,0,0,0,5.62,1.61,9,9,0,0,0,7.64-3.69q2.76-3.69,2.76-10.55v-42q0-6.55-2.76-10.14A9.06,9.06,0,0,0,632.52,93a10,10,0,0,0-5.62,1.51A9.6,9.6,0,0,0,623.37,99a18.88,18.88,0,0,0-1.25,7.28L619.94,92q3.42-9.36,9.35-14.56a19.47,19.47,0,0,1,13.11-5.2A20.78,20.78,0,0,1,654.88,76,22.87,22.87,0,0,1,662.78,87a49.2,49.2,0,0,1,2.71,17.37V151a49.79,49.79,0,0,1-2.81,17.68,23.37,23.37,0,0,1-8.16,11.18,21.68,21.68,0,0,1-12.85,3.8A19,19,0,0,1,628.72,178.78Z" transform="translate(0 -29.33)"/></g></g></svg>